<?xml version="1.0" encoding="UTF-8"?>
<svg id="Layer_2" xmlns="http://www.w3.org/2000/svg" xmlns:xlink="http://www.w3.org/1999/xlink" viewBox="0 0 908.54 859.72">
  <defs>
    <style>
      .cls-1 {
        fill: #242f36;
      }

      .cls-2 {
        fill: #48999a;
      }

      .cls-3 {
        fill: #91d1cc;
      }

      .cls-4 {
        fill: #b85b5a;
      }

      .cls-5 {
        fill: #4d2f3d;
      }

      .cls-6 {
        fill: #687989;
      }

      .cls-7 {
        fill: #76c3cd;
      }

      .cls-8 {
        fill: #1c1f22;
      }

      .cls-9 {
        fill: #9fcfdf;
      }

      .cls-10 {
        fill: #a7aeb1;
      }

      .cls-11 {
        fill: url(#linear-gradient-3);
      }

      .cls-12 {
        fill: url(#linear-gradient-2);
      }

      .cls-13 {
        fill: #165241;
      }

      .cls-14 {
        fill: #5e1d31;
      }

      .cls-15 {
        fill: #943a40;
      }

      .cls-16 {
        fill: #315e50;
      }

      .cls-17 {
        fill: #f6df73;
      }

      .cls-18 {
        fill: #173b4e;
      }

      .cls-19 {
        fill: #489c8f;
      }

      .cls-20 {
        fill: #c46a66;
      }

      .cls-21 {
        fill: #a3dbc3;
      }

      .cls-22 {
        fill: url(#linear-gradient);
      }

      .cls-23 {
        fill: #0063ad;
      }

      .cls-24 {
        fill: #fcfcfd;
      }

      .cls-25 {
        fill: #5ca484;
      }

      .cls-26 {
        fill: #e3e3e6;
      }

      .cls-27 {
        fill: #8ccb99;
      }

      .cls-28 {
        fill: #7f8b93;
      }

      .cls-29 {
        fill: #b8a44d;
      }

      .cls-30 {
        fill: #328083;
      }

      .cls-31 {
        fill: #9ba8b8;
      }

      .cls-32 {
        fill: #c3b3b3;
      }

      .cls-33 {
        fill: #e1ecea;
      }

      .cls-34 {
        fill: #205457;
      }

      .cls-35 {
        fill: #e16873;
      }

      .cls-36 {
        fill: #6b8492;
      }

      .cls-37 {
        fill: #c4c6c5;
      }

      .cls-38 {
        fill: #93aab3;
      }

      .cls-39 {
        fill: #88464d;
      }

      .cls-40 {
        fill: #1a412e;
      }

      .cls-41 {
        fill: #f9f3a5;
      }

      .cls-42 {
        fill: #2a8468;
      }

      .cls-43 {
        fill: #28684a;
      }

      .cls-44 {
        fill: #afc1c1;
      }

      .cls-45 {
        fill: #c9d6d8;
      }

      .cls-46 {
        fill: #296b5e;
      }

      .cls-47 {
        fill: #e19f98;
      }

      .cls-48 {
        fill: #316675;
      }

      .cls-49 {
        fill: #51b2d9;
      }

      .cls-50 {
        fill: #743741;
      }

      .cls-51 {
        fill: #3ea2cc;
      }

      .cls-52 {
        fill: #cf8780;
      }

      .cls-53 {
        fill: #ab454d;
      }

      .cls-54 {
        fill: #2991c7;
      }

      .cls-55 {
        fill: #413927;
      }

      .cls-56 {
        fill: #67b688;
      }

      .cls-57 {
        fill: #c6d4e0;
      }

      .cls-58 {
        fill: #553a37;
      }

      .cls-59 {
        fill: #5f7780;
      }

      .cls-60 {
        fill: #23586b;
      }

      .cls-61 {
        fill: #193226;
      }

      .cls-62 {
        fill: #e0aea1;
      }

      .cls-63 {
        fill: #60b3ac;
      }

      .cls-64 {
        fill: #d5bd58;
      }

      .cls-65 {
        fill: #d4edf5;
      }

      .cls-66 {
        fill: #2d3939;
      }

      .cls-67 {
        fill: #9cbbc3;
      }

      .cls-68 {
        fill: #4c6172;
      }

      .cls-69 {
        fill: #7d97a4;
      }

      .cls-70 {
        fill: #d1f1d6;
      }

      .cls-71 {
        fill: #357883;
      }

      .cls-72 {
        fill: #c7e7e0;
      }
    </style>
    <linearGradient id="linear-gradient" x1="422.11" y1="279.65" x2="455.03" y2="397.12" gradientUnits="userSpaceOnUse">
      <stop offset="0" stop-color="#912943"/>
      <stop offset="1" stop-color="#cd4f60"/>
    </linearGradient>
    <linearGradient id="linear-gradient-2" x1="583.38" y1="119.38" x2="339.12" y2="353" gradientUnits="userSpaceOnUse">
      <stop offset="0" stop-color="#99d999"/>
      <stop offset="1" stop-color="#399b96"/>
    </linearGradient>
    <linearGradient id="linear-gradient-3" x1="567.52" y1="762.68" x2="642.26" y2="803.17" gradientUnits="userSpaceOnUse">
      <stop offset="0" stop-color="#235e74"/>
      <stop offset="1" stop-color="#358487"/>
    </linearGradient>
  </defs>
  <g id="Layer_1-2" data-name="Layer_1">
    <g id="Generative_Object">
      <g>
        <g>
          <path class="cls-41" d="M406.3,452.68c1.77,1.37,13.79,13.02,15,16-24.64.57-25.87-1.67,3,3l15,14c-16.62,4.55-32.41,4.09-49.5,5,17.82,1.61,36.27,2.26,53.5-3l17,17c-.69,5.17-7.38,44.69-10.5,45-21.91-20.78-49.11-16.4-69.5,4-4.73-1.73-5.66-3.87-6-4,8.41-45.85-10.39-89.26-26-131,18.03,12.5,40.72,20.67,58,34Z"/>
          <path class="cls-64" d="M439.3,485.68l-15-14c10.36,2.97,48.71-15,31-11-4.66,1.05-8.65,3.58-13.5,4-6.87-7.08-25.53-11.89-35.5-12-17.28-13.33-39.97-21.5-58-34-.05-.13-1.95-1.87-2-2-1.66-4.47-3.5-9.52-5-14-.24-.73-.74-6.34-3-12,26.36,11.32,114.63,39.48,123.5,50,3.87,4.59-5.25-1.04-5.5,4.5-.4,9.03,26.53,28.58-17,40.5Z"/>
          <path class="cls-30" d="M338.3,390.68c2.26,5.66,2.76,11.27,3,12-8.25,7.28-28.6-21.45-36-16-.21-1.76-2.08-12.7-1.5-13,11.31,6,22.74,11.95,34.5,17Z"/>
          <path class="cls-17" d="M460.3,504.68l-17-17c22.09-6.74,22.35-22.91,17,17Z"/>
          <path class="cls-17" d="M455.3,460.68c-10.67,7.48-21.63,7.71-34,8-1.21-2.98-13.23-14.63-15-16,9.97.11,28.63,4.92,35.5,12,4.85-.42,8.84-2.95,13.5-4Z"/>
          <path class="cls-55" d="M424.3,471.68c-28.87-4.67-27.64-2.43-3-3,12.37-.29,23.33-.52,34-8,17.71-4-20.64,13.97-31,11Z"/>
          <g>
            <path class="cls-56" d="M581.3,67.68c1.8,1.22,4.4,4.78,6,2h1c8.07,10.91,15.98,21.21,17,35-4.25-6.71-8.51-10.69-15-15-17.54-11.65-34.38-10.01-35,14-1.01-.7-12.72-19.8-13-21,7.65-16.4,22.47-25.15,39-15Z"/>
            <path class="cls-56" d="M569.3,51.68c2.03.98,3.76,2.66,6,3,.33.33.68.68,1,1,1.54,1.57,7.86,8.57,9,10,.1.2-.17,1.57,2,4-1.6,2.78-4.2-.78-6-2-2.67-1.81-6.4-6.05-9.5-7-18.88-5.76-30.31,12.22-29.5,21-7.17-5.73-12.56-14.03-22-16.5,6.86-6.41,7.87-7.97,16-12.5.09,1.09-3.07,3.11-3,3.5.26,1.44,2.35-.36,3-.5,3.75-.81,4.01-1.62,7-3,2.26,3.62,14.1-4.57,26-1Z"/>
            <path class="cls-5" d="M313.3,40.68c-2.38,8.54-2.87,24.13-1,33-.72.7-1.01,2.89-1.5,3-.33.07-2.91-3.76-5.5-2,.03-.99-.05-2.01,0-3,2.31-10.93,1.11-34.62,8-31Z"/>
            <path class="cls-16" d="M588.3,69.68h-1c-2.17-2.43-1.9-3.8-2-4,1.15,1.45,1.93,2.55,3,4Z"/>
            <path class="cls-4" d="M364.3,44.68c-24.54,4.73-34.44,11.99-52,29-1.87-8.87-1.38-24.46,1-33,1.09-3.92,1.9-3.8,2-4,11.46-17.68,48.04,1.64,50,5.5.06.12-1.47.82-1,2.5Z"/>
            <path class="cls-40" d="M590.3,89.68c-.37,6.6-6.41-4.58-17.5-1-11.68,3.77-12.47,18.48-17.5,15,.62-24.01,17.46-25.65,35-14Z"/>
            <path class="cls-42" d="M581.3,67.68c-16.53-10.15-31.35-1.4-39,15-.07-.31.03-.68,0-1-.81-8.78,10.62-26.76,29.5-21,3.1.95,6.83,5.19,9.5,7Z"/>
            <path class="cls-21" d="M569.3,51.68c-11.9-3.57-23.74,4.62-26,1,18.9-8.76,1.29-4.37-7,3-.65.14-2.74,1.94-3,.5-.07-.39,3.09-2.41,3-3.5,1.45-.81,6.06-3.73,7-4,9.98-2.86,16.57-1.56,26,3Z"/>
            <path class="cls-25" d="M543.3,52.68c-2.99,1.38-3.25,2.19-7,3,8.29-7.37,25.9-11.76,7-3Z"/>
            <g>
              <path class="cls-1" d="M542.3,47.68l1,1c-.94.27-5.55,3.19-7,4-8.13,4.53-9.14,6.09-16,12.5,9.44,2.47,14.83,10.77,22,16.5.03.32-.07.69,0,1,.28,1.2,11.99,20.3,13,21,5.03,3.48,5.82-11.23,17.5-15,11.09-3.58,17.13,7.6,17.5,1,6.49,4.31,10.75,8.29,15,15,8.45,13.33,21.53,48.77,21,65.5,24.58,11.77,44.75,9.76,52.5,12.5,11.26,3.98,25.79,26.7,29.5,37.5,8.74,25.41,6.55,97.57-25,110-20.6,42.45-23.9,9.75-29.5,8.5-26.93,4.65-17.88,9.95-26.5,20.5-14.1,17.25-21.73-9.82-26.5-11.5-14.04-4.95-20.82,14.09-29.5,21.5,16.51,21.62,42.38,36.98,38,68-1.88,13.32-14.38,19.51-10.5,21.5l86,16c51.59-47.34,172.88-93.95,209-118,7.29-4.85,21.97-22.97,10.5,1.5-9.6,20.47-89.64,104.94-106,154,17.51,6.02,20.06,26.28,14,42,13.82,22.4-3.25,36.05-4,38-.88,2.27-2.43,30.64-27.5,36.5-30.6,7.15-29.03-23.26-35.5,22.5-1.9,13.46-2.01,27.43-3,41-20.58,7.75-42.02,13.63-61,25,7.33,48.16-20.89,65.25-21,69-.01.43,6.08,5.45,6.5,5.5,1.93.22,18.94-11.94,34,9,8.08.65,10.66,2.42,15.5,8l-3,1c-3.65-3.74-6.8-5.19-12-6l-2-1c-1.29-1.81-2-3.73-4-5-3.16-2.01-7.38-6.52-11.5-7-5.28-.62-17.32,3.55-13.5,5-2.09.04,1.54,2.85-6-2-16.35-10.51-16.58-11.2-34,0-3.91,2.51-6.33,4.92-2-1.5,6.56-9.71,20.12-9.61,30.5-7.5,13.24-15.4,23.88-38.42,19.5-59-.33-1.57.51-3.76-1-6.5-.71-.75-2.39-.64-3.5-.5-3.71.47-56.74,32.34-65.5,36,.3-.19,3.73-3.83,4-4,35.34-21.92,87.25-48.89,127-60.5-1.64-22.57,9.56-64.61,9-68-.13-.79-6.15-3.85-8-13.5-.02-.1-.01-1.71,0-2,.03-.65-.11-1.38,0-2,.83-4.56,6.34-9.73,9-13.5.4-3.01-2.98-4-4-7.5-3.61-12.39-3.53-18.2,10-24.5-21.99-27.98,12.21-39.18,36.5-42.5l3.5-3.5c18.81-48.77,53.97-87.55,85-128.5,6.66-8.79,14.33-16.9,20-26.5l-1.5-1.5c-70.46,40.74-148.74,68.94-212.5,121-74.66-16.4-150.64-23.74-226.5-33,14.87,26.01.65,76.66-5.5,106.5,16.13,5.49,37.57,25.57,24,42.5-.25.31-2.72,2.65-4,4-.15.15-2.41.21-4,1.5-.26,1.94,1.94,2.35,2,2.5,1.52,3.52,3.87,5.66,4,6,.3.81.75,1.19,1,2,.86,2.84,1.24,7.02,1,10-.17,2.05-.82,2.15-1,3-.24,1.12-.62,3.05-1,4-4.05,10-14.19,11.58-8,14-4.82.25-8.98,1.38-13.5,3l-.5,3c1.63,5.22-.57,16.91-3,21-.07.12-.69.33-2,2-3.15,4.03-6.43,4.9-10,8-1.63-.05-3.38-.11-5,0-2.06.14-11.71,2.15-13,3.5l-17,44,1.5,2.5c66.32,14.22,135.03,13.93,201.5,28,.68,4.4-6.82-1.54-13.5-1,2.81,11.8-27.01,35.53-37.5,47-30.26,17.63-34.47,13.42-31,34.5,2.08,6.22,60.31,10.57,70,11.5,6.84.66,26.92,6.92,40,1,3.46-4.92-.74-17.5-2-23,1.19-2.51,2.17,1.78,3,4,1.91,5.13,4.33,9.93,5,15.5.99,1.34,3.79,1.16,5,1.5,6.58,1.88,29.93,3.13,36,1,9.33-3.28.19-24.97-4-32,5.83,3.62,4.64,7.63,7,4,1.35,3.63,1.85,10.07,5,10,.51,4.11-6.03,21.82,28,13,4.8-1.24,3.96-3.56,7-3-2.77,8.22-27.34,5.52-34.5,6-2.8,7.48-18.7,6.04-26.5,6-8.16-.05-16.66-.52-24.5-3-4.18,7.95-47.48,3.59-63.5,2-9.37-.93-29.47-3.1-37.5-5-20.69-4.9-15.54-4.73-19-24-41.52,18.44-88.11,19.99-133,17-1.64,1.16.9,9.55-1.5,14-1.51,2.81-6.78,3.64-9.5,4-5.06.66-94.95,3.39-102,3-21.72-9.54-46.85,3.49-68.5-8,6.08-3.56,2.04-20.97,14-29v1c-5.51,7.71-7.74,17.14-9,26.5,1.23,2.7,21.44,2.4,25,2.5,4.14.12,17.41.26,19,0,.62-.1,2.18-1.6,6.5-1,1.05-.58.19-2.23.5-3,1.97-4.92,1.29-17.6,8-27.5,2.17-3.21,13.51-13.05,9.5-5.5,2.37.34,8.94-5.74,9.5,0-9.08-.42-13.15,4.56-17,12-1.15,2.22-3.49,7.4-4,9.5-5.19,21.43-1.81,18.76,27,18.5,5.44-.05,10.61-.91,16-1,12.24-.21,24.77-1.49,37-2,4.91-.2,33.63,2.47,36-2.5.85-16.68-.46-22.31-11-34.5-3.47-4.01-13.12-13.26-18-14-.53-2.8,1.93-1.88,2-2,1.92,1.1,4.12,1.85,6,3,9.82,6,20.95,18.83,23,30.5l3.5,2.5c46.99,2.93,94.78-.28,137.5-21,21.81-10.58,49.66-30.95,62-52,1.21-2.06,1.86-4.01,4-5.5.47-1.02-1.96-2.32-2.5-2.5-11.66-3.94-119.66-12.48-144-16-6.18-.89-44.68-7.42-45.5-11.5,3.73-7.73,16.89-40.74,17-45.5.12-5.19-9.48-2.09-24.5-13-5.66-4.11-10.14-9.21-14-15-8.01,8.87-18.94,15.03-30.5,18-8.94,2.29-20.87,3.99-30,3-37.24-4.02-57.89-44-62-77.5-1.35-11.03-2.72-38.98,3-37.5-.1,3.97-.07,8.03,0,12,.43,25.64,4.47,56.76,21,77.5,24.81,31.13,72.79,26.96,99.5.5,20.24,33.99,67.64,33.1,71.5,6.5,2.44-16.82-4.68-14.45-18-19.5-1.9-2.17-4.89-3.14-7-5-18.72-16.48-6.33-5.38,6,1,2.93,1.52,8.41,5.48,11.5,6,37.12,6.28,41.16-42.58,11.5-42-3.29-4.24-16.47-10.67-22-13.5,4.76-.2,9.87,2.55,14,4.5,3.59,1.69,7.5,5.97,11.5,7,20.68,5.33,26.69-20.49,11-33-3.95-3.15-22.42-11.7-22.5-6-7.01-1.9-13.85-1.86-21-2.5l21-3c-8.66-9.73-22.36-12.87-35-11.5-15.94,1.73-30.82,16.07-39,29-9.14,14.44-14.24,36.33-12,21.5,1.98-13.09,9.29-23.99,18-33.5,1.4-1.53.92-1.92,1-2,20.39-20.4,47.59-24.78,69.5-4,3.12-.31,9.81-39.83,10.5-45,5.35-39.91,5.09-23.74-17-17-17.23,5.26-35.68,4.61-53.5,3,17.09-.91,32.88-.45,49.5-5,43.53-11.92,16.6-31.47,17-40.5.25-5.54,9.37.09,5.5-4.5-8.87-10.52-97.14-38.68-123.5-50-11.76-5.05-23.19-11-34.5-17-.58.3,1.29,11.24,1.5,13,4,33.1,4.62,62.63-8,94-12.92,32.09-33.89,46.58-51,75-16.82,19.52-54.11,81.12-61,105-2.73-1.83.05-6.65,0-7-.69-4.55-10.32.94-24.5,0-55.65-3.7-73.74-63.68-80.5-109.5-5.29-35.86,1.04-95.63-39-111.5-15.14-6-16.1-4.83-32,1,21.09-16.05,46.14-1.57,58.5,18,1.57.45,2.42-2.22,3.5-2,8.36,1.68,11.55,7.95,11,16-.59,8.67-7.54,9.46-6,17.5.93,1.32,5.74-.09,7,.5,15.8,7.34,10.1,29.16,2,40.5.13,2.47,12.21-3.02,17,6,2.21,4.16,1.72,9.03,1,13.5-.58,3.63-4.8,13.54-7,16-9.3,10.36,3.13-11.14,4-14,1.89-6.22,3.83-9.7-2-15-5.67-5.17-13.85-3.33-15,2-.2.93.75,16.44,1,19,.93,9.53,4.38,19.05,6,28.5,1.23,1.1,7.06-4.57,8-5.5-10.7,17.36,1.57,2.81,11.5,4,13.61,1.64,10.88,24.92,11.5,46.5,0,.22-2.03,3.78-2,4,.05.39,5.11,5.54,5.5,5.5,3.08-.29,26.72-44.67,39,8,2.37-14.44,14.72-10.65,16.5-13.5.67-1.07-4.82-12.72,15-16-15.87-33.99,1.05-58.83,38-49-22.49-46.95-11.24-85.19,46.5-58.5,28.44-38.02,28.3-89.72,19.5-134.5-87.33-59.67-51.52-134.89-53-143-8.83-11.97-13.86-32.79-6-46,8.93-15.01,23.73-2.57,23-30-.1-3.67-3.69-14.3-4-20-3.7-68.5,48.2-25.77,46-57.5,2.59-1.76,5.17,2.07,5.5,2,.49-.11.78-2.3,1.5-3,17.56-17.01,27.46-24.27,52-29,4.69-.91,8.35,1.76,3.5-3-6.66-6.55-41.87-27.13-52.5-5-.1.2-.91.08-2,4-6.89-3.62-5.69,20.07-8,31,1.15-22.04-.47-51.13,31.5-48,20.43,2,32.69,23.91,55,21,56.48-65.12,70.38-58.16,108,15,28.91,8.36,19.75-4.33,42.5-12Z"/>
              <g>
                <g>
                  <path class="cls-20" d="M118.3,599.68l-14,10c-1.8-3.24-11.24-19.25-9.5-22,20.72-10.14,21.18-7.82,23.5,12Z"/>
                  <path class="cls-15" d="M104.3,609.68l14-10c.45,3.83,2.7,27.96-.5,29-7.19-4.62-9.67-12.1-13.5-19Z"/>
                  <g>
                    <path class="cls-2" d="M664.3,793.68c-11.49-3.78-22.37-2.32-34,0,17.42-11.2,17.65-10.51,34,0Z"/>
                    <path class="cls-63" d="M695.3,797.68c-10.46-3.9-13.9-2.49-24-2-.33.02-.67,0-1,0-3.82-1.45,8.22-5.62,13.5-5,4.12.48,8.34,4.99,11.5,7Z"/>
                  </g>
                  <g>
                    <path class="cls-4" d="M277.3,508.68c-2.75,5.21-7.63,9.47-8,10-5.15-.97-28.15,20.52-31.5,19-4.5-7.51-6.45-20.35-11.5-22,.65-4.29,2.87-7.89,6-11l2,.5-2.5,5.5c10.4-7.62,33.4-5.95,45.5-2Z"/>
                    <path class="cls-72" d="M185.3,653.68c-35.13,9.96-66.81-4.64-85-35.5-14.97-25.4-21.16-66.73-26-96-.2-1.18.33-15.83-1-24-1.13-6.96-2.93-6.63-3-7-.05-.3,1.88-1.38,1-6-3.67-19.29-8.68-39.31-27-49.5-2.72-1.52-6.09-1.19-3-3,40.04,15.87,33.71,75.64,39,111.5,6.76,45.82,24.85,105.8,80.5,109.5,14.18.94,23.81-4.55,24.5,0Z"/>
                    <path class="cls-15" d="M269.3,518.68c-10.24,14.46-21.47,28.15-32.5,42-8.37-9.91-12.34-32.93-10.5-45,5.05,1.65,7,14.49,11.5,22,3.35,1.52,26.35-19.97,31.5-19Z"/>
                    <path class="cls-4" d="M156.3,627.68c3.28,5.49,6.75,19.4,4.5,21-4.98.13-10.24-.75-15-2-22.57-5.94-14.02-11.16-12.5-14l.5,2c6.31-7.72,13.64-18.32,22.5-7Z"/>
                    <path class="cls-4" d="M231.3,569.68c-.72,3.6-11.97,18.29-15,23-16.94,6.47-13.5.75-17-12,8.27-6.27,22.8-16.47,32-11Z"/>
                    <path class="cls-15" d="M199.3,580.68c3.5,12.75.06,18.47,17,12-1.92,2.98-13.15,24.47-15.5,24-5.74-9.65-10.68-21.46-8.5-33,3.14,2.71,1.2-3.34,5.5-8,2.69-.34.94,2.97,1.5,5Z"/>
                    <path class="cls-52" d="M277.3,508.68c-12.1-3.95-35.1-5.62-45.5,2l2.5-5.5-2-.5c11.99-11.9,45.58-.14,45,4Z"/>
                    <path class="cls-4" d="M174.8,632.68c7.21-1.24,13.66,11.59,10,14-31.42,7.46-13.53-13.39-10-14Z"/>
                    <path class="cls-52" d="M231.3,569.68c-9.2-5.47-23.73,4.73-32,11-.56-2.03,1.19-5.34-1.5-5-4.3,4.66-2.36,10.71-5.5,8,1.59-8.42,7.32-14.37,15.5-17,9.8-3.15,25.79-1.31,23.5,3Z"/>
                    <path class="cls-20" d="M91.3,503.68l-10,1c-.19-2.68-3.67-18.15-2.5-19,9.48.57,13.31,9.45,12.5,18Z"/>
                    <path class="cls-15" d="M195.3,626.68c-.97,2.06-4.8,13.55-7.5,13-3.88-6.11-7.37-9.24-4.5-17,6.33-.8,7.07,1.14,12,4Z"/>
                    <path class="cls-4" d="M72.3,452.68c4.12,4.1,5.37,8.62,7,14-5.62,11.96-11.32-11.34-11-12.5.48-1.75,2.79-1.33,4-1.5Z"/>
                    <path class="cls-4" d="M195.3,626.68c-4.93-2.86-5.67-4.8-12-4,3.04-8.21,17.19-7.54,17-2.5-.02.41-4.5,5.43-5,6.5Z"/>
                    <path class="cls-4" d="M91.3,503.68c-.89,9.4-10.57,14.15-12,6.5-.44-2.38,2.02-5.21,2-5.5l10-1Z"/>
                    <path class="cls-47" d="M156.3,627.68c-8.86-11.32-16.19-.72-22.5,7l-.5-2c5.62-10.47,14.83-18.68,23-5Z"/>
                    <path class="cls-20" d="M79.3,466.68c-1.63-5.38-2.88-9.9-7-14,5.96-.85,9.31,9.08,7,14Z"/>
                    <path class="cls-62" d="M98.3,530.68c-5.02-1.81-10.66-1.16-15,2,1.15-5.33,9.33-7.17,15-2Z"/>
                  </g>
                  <path class="cls-67" d="M474.3,597.68c4.51,3.63,7.59-1.07,7,3.5l-9,.5c-.06-.15-2.26-.56-2-2.5,1.59-1.29,3.85-1.35,4-1.5Z"/>
                  <g>
                    <path class="cls-48" d="M751.8,592.68c26.71,24.96,52.16,1.93,53.5,4.5-3.98,11.61-10.43,22.96-22.5,27.5-20.32,7.64-53.85-9.42-31-32Z"/>
                    <path class="cls-2" d="M797.3,595.68c1.82-5.98-25.01,2.28-30-8.5-6.96-15.03,8.59-14.38,11-19.5,30.39,2.09,33.43-21.4,36-2.5,1.87,13.71-5,24.46-17,30.5Z"/>
                    <path class="cls-48" d="M778.3,567.68c-2.41,5.12-17.96,4.47-11,19.5,4.99,10.78,31.82,2.52,30,8.5-13.67,6.88-36.61,6.7-44-9-3.73-7.92-2.44-16.91,2-24,1.34-.27,2.19-2.03,2.5-2,1.09.12,9.81,6.27,20.5,7Z"/>
                    <path class="cls-60" d="M755.3,562.68c-4.44,7.09-5.73,16.08-2,24-9.9.47-12.8-21.05,2-24Z"/>
                    <g>
                      <path class="cls-48" d="M795.8,515.68c16.21-2.69,28.57,43.42-6,48-29.91,3.96-42.43-13.13-36.5-27.5,6.41-15.52,61.43-16.1,41.5-18.5-1.04-.34.67-1.95,1-2Z"/>
                      <path class="cls-2" d="M792.8,525.68c2.89-.35,10.44-.69,12.5,1.5,4.31,4.59,4.57,31.3-15.5,29.5-17.53-1.58-21.75-27.99,3-31Z"/>
                    </g>
                  </g>
                </g>
                <g>
                  <path class="cls-41" d="M333.3,295.68c39.57,48.6,102.64,97.7,159,125-2.67,1.96,24.96,16.12,29.5,18,18.92,7.84,44.53,12.91,65,10,7.14-1.02,12.96-6.66,16.5-5-7.36,18.6-15.25,12.91-31,12-5.93-5.06-18.72-3.01-26.5-4-45.34-5.78-49.27-15.09-86-30-47.53-19.29-97.8-33.93-140-64-20.08-14.3-53.88-44.84-55.5-71,22.7,4.04,45.88,10.73,69,9Z"/>
                  <path class="cls-17" d="M264.3,282.68c-.08,1.29-.08,2.71,0,4,1.62,26.16,35.42,56.7,55.5,71,42.2,30.07,92.47,44.71,140,64,36.73,14.91,40.66,24.22,86,30,7.78.99,20.57-1.06,26.5,4-33.53-1.93-66.13-8.99-99.5-12-47.87-32.89-108.27-40.07-159-68-38.2-21.04-69.65-57.33-70.5-103l21,10Z"/>
                  <path class="cls-17" d="M312.3,268.68c3.26,5.04,16.01,20.87,21,27-23.12,1.73-46.3-4.96-69-9-.08-1.29-.08-2.71,0-4,.43-7.22,3.13-10.56,6-16,13.96-2.91,28.85-3.72,42,2Z"/>
                  <path class="cls-17" d="M603.3,443.68c-3.54-1.66-9.36,3.98-16.5,5-20.47,2.91-46.08-2.16-65-10-4.54-1.88-32.17-16.04-29.5-18,27.19,13.17,64.98,29.71,95.5,21,9.33-2.66,18.69-11.94,16.5-16.5-.68-1.42-2.11,2.25-3,1-.71-1-2.1-8.8-11-22-4.95-7.35-39.93-50.26-39-55,1.87-9.55,12.77,17.83,15,21,11.79,16.78,50.61,39.08,37,73.5Z"/>
                  <path class="cls-29" d="M296.3,240.68c.25,1.59,14.03,24.96,16,28-13.15-5.72-28.04-4.91-42-2,5.84-11.07,14.56-20.52,26-26Z"/>
                  <path class="cls-24" d="M629.8,343.68c4.61,1.01-7.4,19-11,19-2.53,0-11.82-11.51-13.5-14.5l24.5-4.5Z"/>
                  <path class="cls-24" d="M561.8,348.68l21.5,1.5-13.5,16.5c-1.48.16-11.57-16.6-8-18Z"/>
                  <path class="cls-24" d="M676.8,331.68c5.73-.81-8.8,18-10,18-.67,0-8.73-8.24-7.5-10.5,3.61-.59,16.56-7.37,17.5-7.5Z"/>
                  <g>
                    <path class="cls-22" d="M344.3,286.68c1.38,1.96,2.66,4.02,4,6,16.6-5.28,8.35-17.71,37,6,2.24,5.45,4.99,18.38,11,20,5.16,1.39,13.73-18.26,19-3.5,1.45,4.07.53,22.54,10,20.5,4.72-1.02,10.51-6.79,11-11,.09-.75.13-1.11,1-1,6.15,2.5,15.84,4.78,22.5,7,5.1,3.48,7.36,39.78,22.5,13,.11-.19,2.19-1.61,2-4,1.23.28,12.96-.02,24.5,4,3.61,11.72,14.69,32.08,26.5,15,4.86,9.21,16.32,19.16,22,27,1.73,2.38,3.34,5.52,5,8-15.38-4.71-31.22-8.84-47.5-10-9.75-.69-45.93-1.29-44.5,3-5.75-12.41-17.3,5.27-21.5,5-2.25-.15-9.91-8.64-10.5-9-.04-4.74.52-12.93-2-17-5.64-9.11-13.21,6.35-16.5,6-1.91-.2-26.43-20.92-30-24-21.76-18.76-54.3-53.06-70.5-76.5-2.13-3.08-18.53-27.23-14.5-27.5,5.9,8.07,23.19,17.28,26.5,21.5,2.2,2.81,7.75,22.63,13,21.5Z"/>
                    <path class="cls-35" d="M562.3,393.68c6.1,9.11,9.22,17.41,14,27-6.4,2.52-9.87,9.18-12.5,15-2.09.19-5.1-29.48-21,0-2.4.52-4.3-.65-6.5-1,2.17-5.72.34-19.38-6-21-8.06-2.06-13.23,20.64-25,9,.45-8.63.39-25.22-12-22-6.74,1.75-9.36,9.76-11.5,10-.56.06-9.71-4.52-10-5-1.8-2.98.73-14.18-1.5-19-1.43-4.29,34.75-3.69,44.5-3,16.28,1.16,32.12,5.29,47.5,10Z"/>
                    <path class="cls-14" d="M557.3,385.68c-5.68-7.84-17.14-17.79-22-27,.36-.53,2.31-11.11,4.5-12,6.88-2.79,18.11,17.17,18.5,18.5,1.57,5.37-2.28,13.93-1,20.5Z"/>
                    <path class="cls-24" d="M513.8,343.68l23,3c1.89,1.13-11.46,34.52-24.5-1.5l1.5-1.5Z"/>
                    <path class="cls-24" d="M586.3,422.68c-.25-.12-1.53.13-3-1-.18-6.68,2.78-12.31,1.5-19,8.77,12.86,24.66,28.92,5,35-2.16-6.04,2.58-12.1-3.5-15Z"/>
                    <path class="cls-24" d="M348.3,292.68c-1.34-1.98-2.62-4.04-4-6-1.15-1.63-11.06-19.2-9.5-20l26.5,15.5-13,10.5Z"/>
                    <path class="cls-24" d="M536.3,434.68c-5.38-.87-12.69-4.44-18-6.5-1.35-2.87,9.56-12.58,12-14.5,6.34,1.62,8.17,15.28,6,21Z"/>
                    <path class="cls-24" d="M576.3,420.68c1.99,4,24.03,21.97-10.5,19-3.64-2.32,8.32-17.18,10.5-19Z"/>
                    <path class="cls-24" d="M437.3,323.68c-.87-.11-.91.25-1,1-2.28,2.8-8.01,9.21-11,10-.72.19-1.07.41-1.5,1-16.59-35.41-2.24-18.39,13.5-12Z"/>
                    <path class="cls-24" d="M495.3,401.68c11.85,4.13,5.44,10.75,9,19-15.03-4.28-30.3-8.43-9-19Z"/>
                    <path class="cls-24" d="M396.3,318.68c-6.01-1.62-8.76-14.55-11-20-2.5-4.25,20.73,8.25,21,9.5.34,1.58-8.19,9.17-10,10.5Z"/>
                    <path class="cls-24" d="M463.8,383.68c7.65-.4,7.6,19.11,5,20l-16.5-10.5c2.25-2.27,8.92-9.36,11.5-9.5Z"/>
                    <path class="cls-24" d="M484.3,339.68c-2.52.69-1.88,2.87-2,3-1.87,2.08-7.76,9.62-10.5,9-12.87-22.82-8.39-19.04,9-15,2.33.54,3.28,2.95,3.5,3Z"/>
                    <path class="cls-24" d="M436.3,365.68c2.52,4.07,1.96,12.26,2,17-.08-.05-.27,1.83-1.5,1-1.82-1.23-13.29-8.7-13.5-9.5-.93-3.47,8.29-12.73,13-8.5Z"/>
                    <path class="cls-24" d="M554.8,423.68c3.39,0,17.14,26.68-10.5,12.5,1.45-2.86,7.46-12.5,10.5-12.5Z"/>
                    <path class="cls-24" d="M561.8,370.68c17.85,18.06,2.47,21.72-1.5,14.5-1.78-3.23-.12-14.22,1.5-14.5Z"/>
                    <path class="cls-24" d="M574.8,389.68c1.84-.2,5.19,6.47,5.5,7.5,5.48,18.1-11.77,13.04-5.5-7.5Z"/>
                    <path class="cls-14" d="M569.8,388.68c5.15-1.72.76,13,0,13-2.75-6.36-13-14.18,0-13Z"/>
                    <path class="cls-50" d="M505.3,422.68c-.08-.08-1.37.3-1-2-3.56-8.25,2.85-14.87-9-19-.11-.04.35-1.37-2-1,12.39-3.22,12.45,13.37,12,22Z"/>
                    <path class="cls-39" d="M586.3,422.68l.5,13c-1.91-5.51-3.34-7.86-3.5-14,1.47,1.13,2.75.88,3,1Z"/>
                    <path class="cls-50" d="M425.3,335.68v-1c2.99-.79,8.72-7.2,11-10-.49,4.21-6.28,9.98-11,11Z"/>
                    <path class="cls-50" d="M482.3,343.68v-1c.12-.13-.52-2.31,2-3,.19,2.39-1.89,3.81-2,4Z"/>
                  </g>
                  <g>
                    <path class="cls-70" d="M588.3,170.68c21.85-.57,41.19,9.04,62,13,12.17,2.31,21.02,1.46,26.5,3,22.23,11.99,31.3,38.21,32.5,62-6.05-.88-2.73,2.29-5,4-1.15-15.2-14-54.14-29.5-60-61.64-12.78-92.66-18.21-156.5-6,24.19-12.06,43.09-15.16,70-16Z"/>
                    <path class="cls-42" d="M673.3,326.68c4.07,4.04-21.72,10.18-30.5,12-50.61,10.5-121.34,7.46-171-7-36.43-10.61-73.95-31.69-106.5-51-.18-1.19-.15-2.33,1.5-2,4.96.99,49.12,29.98,91,44,65.24,21.84,149.7,24.55,215.5,4Z"/>
                    <path class="cls-24" d="M610.3,133.68c-3.31-6.08-7.74-13.87-15-16-9.06-10.48-24.67-2.56-30,8-1.53-2.89-6.82-11.09-7-13.5-.78-10.57,17.57-36.74,41-9,3.05,3.61,15.05,25.13,17,30,2.29,5.73,13.13,36.3,4.5,36.5-8.82.21,3.19-10.85-10.5-36Z"/>
                    <path class="cls-1" d="M595.3,117.68c7.26,2.13,11.69,9.92,15,16l-2,.5,7,14v20c-.67.84-19.38.68-21.5.5-1.02-.09.29-2.87-1.5-3v-1c2.22-3.84-14.33-13.2-12-20,20.94,4.08,13.87-30.47-4-18-1.59-10.19,11.62-11.16,19-9Z"/>
                    <path class="cls-70" d="M509.3,64.68c36.57,16.77,32.78,32.51,46,52.5.76,1.15,2.39,2.78,4,2.5,5.25,9.63,10.28,19.3,17,28-3.53,1.48-13.9-11.29-17-15.5-15.95-21.67-22.38-52.72-52-61.5-.22-.34-4.14-2.07-5-6.5,3.92-1.66,6.35.42,7,.5Z"/>
                    <path class="cls-15" d="M258.3,176.68c1.98,5.54-8.64,36.92-9,45.5-2.11,4.36-10.61-10.78-10-23.5,3.55-9.25,6.79-22.21,19-22Z"/>
                    <path class="cls-4" d="M293.3,94.68c-8.62,11.51-13.36,17.59-20,31l-11-15c.3-1.23,1.53-2.94,2-4l.5,2c3.23-12.5,25.19-18.69,28.5-14Z"/>
                    <path class="cls-70" d="M709.3,248.68c1.12,22.13-2.79,64.14-25,75-3.43-3.57,3.24-5.16,7-11.5,8.95-15.07,14.31-42.12,13-59.5,2.27-1.71-1.05-4.88,5-4Z"/>
                    <path class="cls-24" d="M580.3,144.68c-5.33-1.04-5.88-6.34-8-9-.74-2.76,2.12-7.69,4-9,17.87-12.47,24.94,22.08,4,18Z"/>
                    <path class="cls-21" d="M425.3,74.68c-5.21,1.09-17.8-9.09-25.5-12-26.12-9.88-39.84-3.78-44-5-.88-.26-.9-2.04.5-2,26.36-4.19,34.48-4.02,57.5,10,.96.59,1.91-1.06,2-1,4.29,2.79,6.19,6.8,9.5,10Z"/>
                    <path class="cls-15" d="M273.3,125.68c-2.83,5.72-4.9,12.43-7,18.5h-2c-1.78-10.33-4.45-23.31-2-33.5l11,15Z"/>
                    <path class="cls-56" d="M559.3,119.68c-1.61.28-3.24-1.35-4-2.5-13.22-19.99-9.43-35.73-46-52.5,32.97,4.2,41.15,38.75,50,55Z"/>
                    <path class="cls-7" d="M595.3,117.68c-7.38-2.16-20.59-1.19-19,9-1.88,1.31-4.74,6.24-4,9-1.47-1.85-2.92-2.31-7-10,5.33-10.56,20.94-18.48,30-8Z"/>
                    <path class="cls-27" d="M650.3,183.68c-20.81-3.96-40.15-13.57-62-13,12.8-.4,22.59-.89,35.5,2,5.29,1.18,28.96,9.61,26.5,11Z"/>
                    <path class="cls-47" d="M364.3,44.68c-.47-1.68,1.06-2.38,1-2.5-1.96-3.86-38.54-23.18-50-5.5,10.63-22.13,45.84-1.55,52.5,5,4.85,4.76,1.19,2.09-3.5,3Z"/>
                    <path class="cls-47" d="M293.3,94.68c-3.31-4.69-25.27,1.5-28.5,14l-.5-2c6.01-13.54,17.72-16,31.5-15,1.09,1.19-2.34,2.79-2.5,3Z"/>
                    <path class="cls-52" d="M258.3,176.68c-12.21-.21-15.45,12.75-19,22,.11-2.27-.31-5.14,0-6.5,2.19-9.55,16.42-22.72,19-15.5Z"/>
                    <g>
                      <path class="cls-4" d="M502.3,69.68c.53.94,7.07,5.12,12,17.5,14.07,35.32-5.73,26.99-28,16.5-1.55-5.76,4.08-8.63,4-9.5-.04-.46-3.62-.44-3-4,.47-2.68,14.41-10.51,13-13-5.89.12-11.8,6.55-12.5,6.5-1.53-.1-3.44-6.23-6.5-5,5.52-6.59,12.5-9.01,21-9Z"/>
                      <path class="cls-47" d="M501.3,67.68c-2.02,1.62-3.92.7-6,1-23.91-36.16-31.77-87.44-76-46-2.52,2.36-5.96,5.9-8,6,9.23-10.24,28.61-28.65,43.5-26,12.61,2.25,39.65,52.97,46.5,65Z"/>
                      <path class="cls-53" d="M425.3,62.68c-2.47-1.62-5.46-3.43-8-5-6.59-4.07-12.58-8.7-20-11.5,3.64-6.73,8.96-11.9,14-17.5,2.04-.1,5.48-3.64,8-6,2.78,1.53-.87,9.52,0,22.5.27,4.04,5.22,9.85,1,13,1.66,1.59,3.35,2.88,5,4.5Z"/>
                      <path class="cls-15" d="M502.3,69.68c-8.5,0-15.48,2.41-21,9-3.87,4.62-6.66,14.94-7.5,15-1.84-1.29-1.33-2.14-1.5-3-2.23-11.28,13.5-20.63,23-22,2.08-.3,3.98.62,6-1,.58,1.01.78,1.62,1,2Z"/>
                      <path class="cls-53" d="M486.3,103.68c-9.51-4.48-16.48-10.2-25-16,3.04,1.8,7.88,5.02,11,3,.17.86-.34,1.71,1.5,3,.84-.06,3.63-10.38,7.5-15,3.06-1.23,4.97,4.9,6.5,5,.7.05,6.61-6.38,12.5-6.5,1.41,2.49-12.53,10.32-13,13-.62,3.56,2.96,3.54,3,4,.08.87-5.55,3.74-4,9.5Z"/>
                      <path class="cls-4" d="M495.3,68.68c-9.5,1.37-25.23,10.72-23,22-3.12,2.02-7.96-1.2-11-3-1.01-.69-2.01-1.33-3-2-.77-.49-5.46-4.38-11-8-7.39-4.91-14.48-10.08-22-15-1.65-1.62-3.34-2.91-5-4.5,4.22-3.15-.73-8.96-1-13-.87-12.98,2.78-20.97,0-22.5,44.23-41.44,52.09,9.84,76,46Z"/>
                    </g>
                    <g>
                      <path class="cls-12" d="M417.3,57.68c2.54,1.57,5.53,3.38,8,5,6.2,6.1,14.77,10.28,22,15,2.56,1.7,6.51,4.97,11,8,.91.57,1.47,1.1,3,2,8.52,5.8,15.49,11.52,25,16,42.48,27.39,40.29-3.55,21-33,29.62,8.78,36.05,39.83,52,61.5,3.1,4.21,13.47,16.98,17,15.5,3.08,3.99,11.83,12.79,16,17v1c-29.78-2.2-71.71,9.3-94.5,29-1.82,1.57-23.35,24.72-17,23,2.37-.64,5.6-15.1,37.5-31,63.84-12.21,94.86-6.78,156.5,6,15.5,5.86,28.35,44.8,29.5,60,1.31,17.38-4.05,44.43-13,59.5-3.76,6.34-10.43,7.93-7,11.5-5.02,2.45-9.53,2.54-11,3-65.8,20.55-150.26,17.84-215.5-4-41.88-14.02-86.04-43.01-91-44-1.65-.33-1.68.81-1.5,2-12.61-7.48-31.98-17.29-42.5-25-1.61-1.18,1.64-1.99-1-4-7.88-5.99-27.49-23.58-25.5-11-11.44,5.48-20.16,14.93-26,26-2.87,5.44-5.57,8.78-6,16l-21-10c-.61-32.83,19.33-71.5,21-107.5,4.5-37.85,45.72-99.53,82.5-109.5,7.58-2.05,9.03.07,9.5,0-1.4-.04-1.38,1.74-.5,2,4.16,1.22,17.88-4.88,44,5,7.7,2.91,20.29,13.09,25.5,12,1.38,1.34,3.34,2.35,4.5,4,4.74.6-10.6-14.61-18-19-24.39-14.49-52.58-12.06-77.5-.5,25.16-15.67,57.56-17.76,83-1.5Z"/>
                      <g>
                        <path class="cls-24" d="M427.3,152.68c2.31,9.94,3.1,20.82,1,31-2.33-16.16-9.54-30.87-25-38-1.08-.5-3.95-3.42-9.5-4-44.07-4.58-68.32,58.34-30.5,94-17.29-2.68-24.8-4.08-36-18-16.47-25.69-12.23-61.32,7-84.5,28.21-34.01,82.49-25.75,93,19.5Z"/>
                        <path class="cls-8" d="M403.3,145.68c15.46,7.13,22.67,21.84,25,38,.05.34-3.77,3.55,2,4.5-2.3,10.79-5.33,39.5-16,44.5l11-25.5c-1.31-3.26-4.81,9.5-10,16-9.62,12.04-18.18,13-31.5,4.5-19.73-12.59-17.65-33.63-14.5-53,10.88,17.69,35.61,3.61,30-13.5-2.78-8.5-14.7-11.48-22-7.5.26-10.76,17.71-8.26,26-8Z"/>
                        <path class="cls-54" d="M403.3,145.68c-8.29-.26-25.74-2.76-26,8-11.48,6.26-7.81,19.82-8,21-3.15,19.37-5.23,40.41,14.5,53,13.32,8.5,21.88,7.54,31.5-4.5,5.19-6.5,8.69-19.26,10-16l-11,25.5c-.96.45-19.45,4.91-20.5,5-10.29.91-20.39-.43-30.5-2-37.82-35.66-13.57-98.58,30.5-94,5.55.58,8.42,3.5,9.5,4Z"/>
                        <path class="cls-40" d="M413.3,116.68c6.61,8.81,15.55,25.54,14,36-10.51-45.25-64.79-53.51-93-19.5-19.23,23.18-23.47,58.81-7,84.5-22.3-27.71-11.44-74.58,9-101-.61,8.25,10.61-10.63,33.5-13,15.95-1.65,23.62,4.66,28,1,6.52,2.96,9.77,11.91,15.5,12Z"/>
                        <path class="cls-61" d="M519.8,235.68c26.16-6.87,42.85,84.73,7,23-15.42,38.69-19.92-19.61-7-23Z"/>
                        <path class="cls-61" d="M675.8,204.68c13.51-.49,7.98,40.8,4.5,48.5-9.06,20.02-5.44-8.43-14-8-1.07-10.53,2.81-22.31-2-17-1.04-5.4,5.52-23.29,11.5-23.5Z"/>
                        <path class="cls-70" d="M614.8,199.68c14.12-3.1,32.9,22.34,21,31-14.97,10.88-40.98-26.62-21-31Z"/>
                        <path class="cls-70" d="M586.8,208.68c15.87-3.58,23.39,28.61,13,32-15.78,5.15-25.54-29.17-13-32Z"/>
                        <path class="cls-13" d="M413.3,116.68c-5.73-.09-8.98-9.04-15.5-12-4.38,3.66-12.05-2.65-28-1-22.89,2.37-34.11,21.25-33.5,13,21.54-27.85,55.58-28.56,77,0Z"/>
                        <path class="cls-16" d="M321.3,226.68c-14.72-6.27-35.08-5.65-47,6-11,6.9-20.54,25.74-8,.5,21.63-23.84,47.21-15.9,72.5-2.5-6.06.71-11.66-2.97-17.5-4Z"/>
                        <path class="cls-43" d="M554.3,230.68c-5.95-5.95-14.26-16.83-22.5-19-3.39-.89-21.58-1.34-24-1-.84.12-.4,1.98-.5,2-2.17.32-3.63-.78-5.5,2,.81-5.98-3.34.06-2-4,20.69-11.66,45.22-.54,54.5,20Z"/>
                        <path class="cls-43" d="M542.8,147.68c10.86-1.17,23.67.5,32.5,7.5-.96,2.47-16.92-12.65-51.5,2.5,1.62-6.37,13.04-9.36,19-10Z"/>
                        <path class="cls-46" d="M362.8,66.68c11.89-1.39,23.27,1.39,34,6v2c-20.99-11.02-44.97-6.78-63,8-2.58,2.11-22.38,23.63-6.5,4.5,6.58-7.92,25.34-19.32,35.5-20.5Z"/>
                        <path class="cls-70" d="M554.3,230.68l-.5,2c-16.59-16.53-21.83-21.69-46.5-20,.1-.02-.34-1.88.5-2,2.42-.34,20.61.11,24,1,8.24,2.17,16.55,13.05,22.5,19Z"/>
                        <path class="cls-72" d="M321.3,226.68c-16.52-2.9-32.2-3.29-47,6,11.92-11.65,32.28-12.27,47-6Z"/>
                        <g>
                          <path class="cls-50" d="M447.3,77.68c-7.23-4.72-15.8-8.9-22-15,7.52,4.92,14.61,10.09,22,15Z"/>
                          <path class="cls-58" d="M458.3,85.68c-4.49-3.03-8.44-6.3-11-8,5.54,3.62,10.23,7.51,11,8Z"/>
                          <path class="cls-58" d="M461.3,87.68c-1.53-.9-2.09-1.43-3-2,.99.67,1.99,1.31,3,2Z"/>
                        </g>
                        <path class="cls-24" d="M369.3,174.68c.19-1.18-3.48-14.74,8-21,7.3-3.98,19.22-1,22,7.5,5.61,17.11-19.12,31.19-30,13.5Z"/>
                      </g>
                    </g>
                  </g>
                </g>
              </g>
            </g>
          </g>
        </g>
        <g>
          <path class="cls-32" d="M83.3,483.68c-1.26-.59-6.07.82-7-.5-1.54-8.04,5.41-8.83,6-17.5,3.7.3,2.58,16.64,1,18Z"/>
          <g>
            <g>
              <path class="cls-17" d="M588.3,762.68c-12.34,21.05-40.19,41.42-62,52-11.8,2.31-30.78,12.91-42.5,13-.75,0-.25-1.98-1-2-43.71-1.02-85.68-36.41-102.5-75.5-3.36-7.82-5.31-21.01-9-22.5-.85-3.44-2.88-7.52-4-11,48.91,7.1,23.08,15.19,24,20.5,61.17,24.41,130.79,34.22,197,25.5Z"/>
              <path class="cls-64" d="M417.3,681.68c-.11,4.76-13.27,37.77-17,45.5.82,4.08,39.32,10.61,45.5,11.5,24.34,3.52,132.34,12.06,144,16,.54.18,2.97,1.48,2.5,2.5-2.14,1.49-2.79,3.44-4,5.5-66.21,8.72-135.83-1.09-197-25.5-.92-5.31,24.91-13.4-24-20.5-3.53-10.94-7.7-22.3-14-32-.01-.32.06-.69,0-1l25.5-14c9.68,8.1,27.02,18.99,38.5,12Z"/>
              <path class="cls-17" d="M526.3,814.68c-42.72,20.72-90.51,23.93-137.5,21l-3.5-2.5c-2.05-11.67-13.18-24.5-23-30.5,8.61-17.48,14.02-36.81,13-56.5-2.43-5.67-2.87-13.92-4-18.5,3.69,1.49,5.64,14.68,9,22.5,16.82,39.09,58.79,74.48,102.5,75.5.75.02.25,2.01,1,2,11.72-.09,30.7-10.69,42.5-13Z"/>
              <path class="cls-29" d="M367.3,716.68c1.12,3.48,3.15,7.56,4,11,1.13,4.58,1.57,12.83,4,18.5,1.02,19.69-4.39,39.02-13,56.5-1.88-1.15-4.08-1.9-6-3,13.09-22.57,10.92-83.71-3-111-.03-1.33.04-2.68,0-4,6.3,9.7,10.47,21.06,14,32Z"/>
              <path class="cls-64" d="M417.3,681.68c-11.48,6.99-28.82-3.9-38.5-12l-25.5,14c-.75-4.05-3.89-8.02-5-12,11.56-2.97,22.49-9.13,30.5-18,3.86,5.79,8.34,10.89,14,15,15.02,10.91,24.62,7.81,24.5,13Z"/>
            </g>
            <g>
              <path class="cls-11" d="M630.3,793.68c11.63-2.32,22.51-3.78,34,0,7.54,4.85,3.91,2.04,6,2,.33,0,.67.02,1,0l4,8c-18.72-10.04-38.51,27.53-22,17-3.22,4.82-8.23,19.45-7,26-1.21-.34-4.01-.16-5-1.5-.67-5.57-3.09-10.37-5-15.5,5.86-1.41-.01-16.1-5-21-13.2-12.98-26.73-4.6-34,9.5,2.7,7.56-1.89,18.9-2,29.5-9.69-.93-67.92-5.28-70-11.5-3.47-21.08.74-16.87,31-34.5.43-.25,1.98,1.55,9.5-3l32-33c27.84-10.61,52.66-28.56,80.5-40,4.38,20.58-6.26,43.6-19.5,59-10.38-2.11-23.94-2.21-30.5,7.5-4.33,6.42-1.91,4.01,2,1.5Z"/>
              <path class="cls-19" d="M631.3,808.68c-4.4,4.99-1.53,8.5,0,14-17.27-8.73-17.3,12.86-20,24.5l24,1.5c-13.08,5.92-33.16-.34-40-1,.11-10.6,4.7-21.94,2-29.5,7.27-14.1,20.8-22.48,34-9.5Z"/>
              <path class="cls-60" d="M678.3,725.68c-27.84,11.44-52.66,29.39-80.5,40l-32,33c-7.52,4.55-9.07,2.75-9.5,3,10.49-11.47,40.31-35.2,37.5-47,6.68-.54,14.18,5.4,13.5,1-.11-1.22.85-.9,1-1,8.76-3.66,61.79-35.53,65.5-36,1.11-.14,2.79-.25,3.5.5,1.51,2.74.67,4.93,1,6.5Z"/>
              <path class="cls-3" d="M678.3,815.68c4.19,7.03,13.33,28.72,4,32-15.36.1-32.61-.78-22-21.5,6.58-12.85,22.6,2.88,16-11.5.63.31,1.42.64,2,1Z"/>
              <path class="cls-3" d="M631.3,822.68c.05.17,1.96,2.82,2,3,1.26,5.5,5.46,18.08,2,23l-24-1.5c2.7-11.64,2.73-33.23,20-24.5Z"/>
              <path class="cls-19" d="M676.3,814.68c6.6,14.38-9.42-1.35-16,11.5-10.61,20.72,6.64,21.6,22,21.5-6.07,2.13-29.42.88-36-1-1.23-6.55,3.78-21.18,7-26,6.75-10.1,13.03-10.86,23-6Z"/>
              <path class="cls-3" d="M713.3,809.68c5.85,5.99,12.91,29.02,5,31-4.63,1.16-10.42-.68-15-1-2.17-5.9,4.36-27.1,4-28.5-.42-1.64-2.92-1.35-3-1.5-.94-1.71-3.16-3.61-3-6,5.2.81,8.35,2.26,12,6Z"/>
              <path class="cls-2" d="M699.3,802.68l2,1c-.16,2.39,2.06,4.29,3,6-8.42,9.99-8.08,17.15-10,29.5,3.2,3.52,8.55.47,9,.5,4.58.32,10.37,2.16,15,1v2c-34.03,8.82-27.49-8.89-28-13-1.54-12.32-4.39-21.43-4-22.5.94-2.6,10.32-3.68,13-4.5Z"/>
              <path class="cls-48" d="M675.3,803.68c5.87,3.15,7.92,10.37,10,16-2.36,3.63-1.17-.38-7-4-.58-.36-1.37-.69-2-1-9.97-4.86-16.25-4.1-23,6-16.51,10.53,3.28-27.04,22-17Z"/>
              <path class="cls-30" d="M695.3,797.68c2,1.27,2.71,3.19,4,5-2.68.82-12.06,1.9-13,4.5-.39,1.07,2.46,10.18,4,22.5-3.15.07-3.65-6.37-5-10-2.08-5.63-4.13-12.85-10-16l-4-8c10.1-.49,13.54-1.9,24,2Z"/>
              <path class="cls-30" d="M636.3,829.68c-.83-2.22-1.81-6.51-3-4-.04-.18-1.95-2.83-2-3-1.53-5.5-4.4-9.01,0-14,4.99,4.9,10.86,19.59,5,21Z"/>
              <path class="cls-63" d="M703.3,839.68c-.45-.03-5.8,3.02-9-.5,1.92-12.35,1.58-19.51,10-29.5.08.15,2.58-.14,3,1.5.36,1.4-6.17,22.6-4,28.5Z"/>
            </g>
          </g>
          <g>
            <path class="cls-24" d="M880.3,384.68c-1.68.49-2.2-1.32-3.5-1-1.74.44-12.76,9.06-31,18-53.57,26.25-108.87,48.56-157.5,84l-2-8c63.76-52.06,142.04-80.26,212.5-121l1.5,1.5c-5.67,9.6-13.34,17.71-20,26.5Z"/>
            <path class="cls-45" d="M439.3,677.68c3.14.09,15.21,2.91,25,4v3c-9.29-1.7-18.4-4.91-28-5-.42-1.64-1.94-.46-2-2,1.62-.11,3.37-.05,5,0Z"/>
            <path class="cls-36" d="M483.3,623.68c.7.19,3.67,1.4,3,3-.3.01-1.08,1.06-6,1-1.73-.02-2.52.04-4-1,.38-.95.76-2.88,1-4,2.17,1.76,4.47.58,6,1Z"/>
            <path class="cls-57" d="M485.3,620.68l-2,3c-1.53-.42-3.83.76-6-1,.18-.85.83-.95,1-3,1.59.47,5.44.97,7,1Z"/>
            <path class="cls-44" d="M449.3,669.68c1.31-1.67,1.93-1.88,2-2l8,1.5-10,.5Z"/>
            <path class="cls-24" d="M488.3,626.68c.66-.02,1.34,0,2,0,6.2,0,14.11,1.49,20,1-1.61,3,2.09,7.99-4,7,.31-2.51-.57-1.75-2-2-.31-.05-.68,0-1,0-4.98-.06-23.09.99-23-5,4.92.06,5.7-.99,6-1,.66-.03,1.34.02,2,0Z"/>
            <g>
              <path class="cls-24" d="M686.3,477.68l2,8c-6.58,7.77-26.62,94.06-32,111.5-7.41,24.02-18.7,46.94-26,71-2.82,9.29-20.38,77.79-20,82,.11,1.24,1.99-1.56,2,.5-.27.17-3.7,3.81-4,4-.15.1-1.11-.22-1,1-66.47-14.07-135.18-13.78-201.5-28l-1.5-2.5,17-44c1.29-1.35,10.94-3.36,13-3.5.06,1.54,1.58.36,2,2,.04.15-2.33,1.48-.5,3,4.98,4.14,53.02,6.11,63,9,8.63-2.89-15.04-3.45-34.5-7v-3c23.39,2.61,24.7.1,1.5-2-6.77-5.95,36.95-.43,38.5-1.5-5.45-3.09-33.97-2.55-36.5-5.5-3.53-4.11,4.69-2.44,5.5-3.5,3.36-4.42-18.39-2.49-14.5-5.5,7.58-.1,2.01-3.71,0-7,17.09.85,34.73,3.18,51.5,1.5-13.29.51-32.07-5.46-39.5-1.5-1.87-4.82-13.08-.55-8-6l22,2v-2l-30.5-4,.5-3c4.52-1.62,8.68-2.75,13.5-3,5.56-.29,35.07,2.53,42.5,4,8.93-6.57.65-1.98,0-2-.76-.03-.24-1.99-1-2-29.5-.46-51.36-3.59-25-6,4.84-.44,18.07,2.61,18.5-2,.32,0,.69-.05,1,0-.3,2.48.53,1.76,2,2,6.09.99,2.39-4,4-7,.67-.05,8.03-.71,5.5-2-3.71-1.89-19.57-.36-25.5,0-1.1.07-2.08-2.52-2,1-.66.02-1.34-.03-2,0,.67-1.6-2.3-2.81-3-3l2-3c19.66.35,14.12-2.68-2-4.5.1-8.07,11.84-.79,17-4-6.08-2.14-14.77-1.2-20.5-2.5-1.07-.24.28-3.83-2.5,0-.25-.81-.7-1.19-1-2-1.36-4.2,22.09.27,34-.5-10.84-2.82-40.63-5.2-17-8l-15-5.5c13.57-16.93-7.87-37.01-24-42.5,6.15-29.84,20.37-80.49,5.5-106.5,75.86,9.26,151.84,16.6,226.5,33Z"/>
              <g>
                <path class="cls-36" d="M464.3,681.68c-9.79-1.09-21.86-3.91-25-4,3.57-3.1,6.85-3.97,10-8l10-.5-8-1.5c2.43-4.09,4.63-15.78,3-21l30.5,4v2l-22-2c-5.08,5.45,6.13,1.18,8,6,7.43-3.96,26.21,2.01,39.5,1.5-16.77,1.68-34.41-.65-51.5-1.5,2.01,3.29,7.58,6.9,0,7-3.89,3.01,17.86,1.08,14.5,5.5-.81,1.06-9.03-.61-5.5,3.5,2.53,2.95,31.05,2.41,36.5,5.5-1.55,1.07-45.27-4.45-38.5,1.5,23.2,2.1,21.89,4.61-1.5,2Z"/>
                <path class="cls-69" d="M480.3,627.68c-.09,5.99,18.02,4.94,23,5-.43,4.61-13.66,1.56-18.5,2-26.36,2.41-4.5,5.54,25,6,.76.01.24,1.97,1,2,.65.02,8.93-4.57,0,2-7.43-1.47-36.94-4.29-42.5-4-6.19-2.42,3.95-4,8-14,1.48,1.04,2.27.98,4,1Z"/>
                <path class="cls-36" d="M476.3,607.68c-.13-.34-2.48-2.48-4-6l9-.5c.59-4.57-2.49.13-7-3.5,1.28-1.35,3.75-3.69,4-4l15,5.5c-23.63,2.8,6.16,5.18,17,8-11.91.77-35.36-3.7-34,.5Z"/>
                <path class="cls-69" d="M485.3,620.68c-1.56-.03-5.41-.53-7-1,.24-2.98-.14-7.16-1-10,2.78-3.83,1.43-.24,2.5,0,5.73,1.3,14.42.36,20.5,2.5-5.16,3.21-16.9-4.07-17,4,16.12,1.82,21.66,4.85,2,4.5Z"/>
                <path class="cls-69" d="M452.3,692.68c13.2,4.5,27.44,9.84,41.5,9,3.92,3.01-1.63,1.78-11,2-10.11-1.93-32.79-8.98-24,1,.2-2.47,15.38,1.48,26.5,3,.2,4.34-37.48-6.69-28.5,2,1.5,1.45,22.31,3.8,25.5,6-14.62-.61-30.44-4.43-24.5,0-3.44,1.21-31.72-7.16-32.5-9.5-1.11-3.35,2.13-6.26,5-6.5,1.86-.15,16.22,5.05,17.5,5,10.44-.44-2.56-7.01-17.5-10,.68-2.21.65-3.77,2-6,6.34.69,13.81,3.53,20,4Z"/>
                <path class="cls-49" d="M537.3,550.68c-18.29-2.71-36.48-7.47-55-9,.05-.5-1.07-3.28,1.5-10,11.47,3.03,65.2,8.85,70,12,13.13,8.61-37.93-4.58-38.5-2.5-.6,2.3,47.7,7.07,36.5,11.5-1.23.49-11.59-1.57-14.5-2Z"/>
                <path class="cls-49" d="M522.3,502.68c-2.5.58,4.61,4.14,4,0,2.71.53,5.36,1.1,8,2,.14.05,1.67,2.68,3,0,3.94.12,2.84.98,3,1,1.04,2.19,4.49,2.75,5,0,4.16.64,8,2.02,12,3-2.76.79,7.27,4.16,8,2,.89.29,1.89.1,3,1-2.01,7.41-6.49,1.07-6,5-4.2-1.81-37.58-7.3-47-9-6.2-2.67-15.47-4.96-22-3-.49.15-1.35-.07-2,0,0-.66,0-1.34,0-2v-2c.14-.59-.16-1.54,0-2,9.99-1.39,20.94,2.25,31,4Z"/>
                <path class="cls-36" d="M530.8,642.68c3.11-.97,11.37,3.92,12,4,.47.06-.43-2.65,4-2,3.28.48,10.35,2.13,15,3,5.97,1.12,50.47,10.06,51.5,12.5,1.46,3.47-4.37,3.5-6.5,3.5-9.24,0-20.57-7.94-25-4-3.2-3.42-6.6-1.93-7-2-15.01-2.64-29.67-8.58-45-10-2.36-1.3,0-4.69,1-5Z"/>
                <path class="cls-24" d="M562.3,593.68c1.62.26.66,1.83,1.5,2,.69-.95,1.33-1.25,2.5-1,2.57,1.77,9.22,4.05,12,2,.72.14,4.5,2.84,9.5,4,2.23.52-.12-1.85,3.5-1,5.76,4.21,19.34,5.52,27,7,.88.27,4.07,2.44,9,3l-1,4c-4.27-1.16-16.8-4.3-20.5-5-3.72-.7-4.27,1.04-4.5,1-.62-.12-1.38.12-2,0,1.62-2.13-11.44-5.14-15.5-6-13.2-2.81-27.25-3.83-40.5-6-.92-3.57,1.23-4.36,4-6,3.3,1.73,12.29,3.82,15,2Z"/>
                <path class="cls-57" d="M611.3,509.68c-6.24-.07,10.56,4.98,16,3,15.18,3.46,32.78,3.81,28,10-2-1.39-3.07-1.42-4,1-3.37.22-62.94-12.57-66-14l1-1c23.02.95-10.97-1.19-1.5-6,.4-.2,8.04-.08,9,0,.78.07.22,1.93,1,2,5.13.43,17.96.28,12.5,3.5,3.93.39,3.8,1.44,4,1.5Z"/>
                <path class="cls-49" d="M491.3,504.68c.65-.07,1.51.15,2,0,7.25,1.22,14.78,1.7,22,3,9.42,1.7,42.8,7.19,47,9,6.05,2.6,1.62,5.82.5,6-.98.16-8.6-4.16-19-6-17.84-3.15-36.01-5.74-54-8-1.99-5.08,1.5-3.72,1.5-4Z"/>
                <path class="cls-49" d="M486.8,525.68c2.41-.58,41.46,9.1,49,8-.1,1.62,21.6,1.77,22.5,5.5-1.67,3.1-1.42,2.32-4.5,2.5-2.93.17-52.34-7.73-58-9-2.13-.48-18.55-4.7-9-7Z"/>
                <path class="cls-49" d="M568.3,511.68c-1.11-.9-2.11-.71-3-1-3.38-1.11-5.1-1.29-8-2-4-.98-7.84-2.36-12-3-1.58-.24-3.4.19-5,0-.16-.02.94-.88-3-1-.99-.03-2.01.02-3,0-2.64-.9-5.29-1.47-8-2-1.25-.24-2.74.22-4,0-10.06-1.75-21.01-5.39-31-4,.28-.79-1.61-1.44-1-2.5,2.01-3.92,69.34,5.73,77.5,11.5,2.77,1.96.9,2.54.5,4Z"/>
                <path class="cls-36" d="M512.8,469.68c8.68-.58,5.8,8.95,6.5,10.5,4.54,10.01,3.69-13.21,14-7-8.64,4.13-.77,5.59-1,6-.27.49-11.68,3.3.5,3.5,8.24.13,4.96-4.52,6.5-6.5,8.45-10.86,3.74,18.42,12,6,.64-.96.18-9.79,6.5-6.5,1.34.7-2.56,6.85-1.5,9.5-4.01,5.64-13.66-1.4-14.5-1.5-12.95-1.59-30.84,4.19-28-12-6.78,21.32-8.92-1.48-1-2Z"/>
                <path class="cls-49" d="M487.8,519.68c3.42-1.16,61.75,13.01,71,13,3.2,7.46-13.49.02-21-1-7.18-.97-48.02-5.11-51-7-1.2-.76-.58-4.46,1-5Z"/>
                <path class="cls-49" d="M487.8,514.68c20.84,5.87,58.24,5.93,72.5,15.5-13.09-2.02-63.66-8.32-69.5-10.5-3.01-1.12-4.67-1.42-3-5Z"/>
                <path class="cls-49" d="M488.8,509.68c3.06-2.29,66.92,11.52,74.5,15.5-1.49,2.97-3.4-1.06-6.5-1.5-22.72-3.24-45.4-5.99-68-10-.81-.67-.83-3.38,0-4Z"/>
                <path class="cls-49" d="M536.3,551.68c.19.33,4.62,3.46-2.5,4-2.72.21-46.24-7.67-53.5-9.5-.5-2.08,1.03-2.69,1-3.5l55,9Z"/>
                <path class="cls-49" d="M478.8,548.68c2.52-1.18,47.69,8.33,55,8,6.8,8.11-16.64,1.66-32-1-2.34-.4-32.14-2.73-23-7Z"/>
                <path class="cls-51" d="M476.8,554.68c6.22,1.37,51.24,5.97,53,8,.55.63.83,2.02.5,2.5-1.41,2.05-44.38-4.64-49.5-5.5-13.2-2.22,5.99-1.1-4-5Z"/>
                <path class="cls-31" d="M525.8,657.68l6,1c.71,7.78,16.85,2.16,23,7l5-2c8.63,6.3,5.68,1.59,8,2,.81.14.19,1.86,1,2,5.68.99,55.84,9.8,34,8-20.56-1.69-55.79-13.44-79-12-1.49-3.55,3.42.49,2-6Z"/>
                <path class="cls-31" d="M464.3,684.68c19.46,3.55,43.13,4.11,34.5,7-9.98-2.89-58.02-4.86-63-9-1.83-1.52.54-2.85.5-3,9.6.09,18.71,3.3,28,5Z"/>
                <path class="cls-24" d="M485.3,707.68c.33.04.67-.04,1,0-.67,3.37,3.15,1.41,4,2,.22.15,2.48,4.24,2,5-2.6-1.71-6.14-1.45-8,1-.66-.02-1.34.03-2,0-3.19-2.2-24-4.55-25.5-6-8.98-8.69,28.7,2.34,28.5-2Z"/>
                <path class="cls-57" d="M527.8,649.68c1.61-.25,28.34,5.12,32,6,11.26,2.7,22.74,9.99,35,9l1,3,8.5,1.5c1.97,3.78-29.28-6.95-31.5-7.5-3.6-.9-17.83-.01-16-5-7.23,4.71-3.86-.44-6-1-7.75-2.01-16.14-2.39-24-4-1.04-.34.68-1.95,1-2Z"/>
                <path class="cls-49" d="M542.8,492.68c1.54-.24,30.03,5.01,30.5,6.5.2.64-.43,7.62-8.5,6.5-11.11-1.55-35.09-14.61,3-4,3.71-1.97-32.57-7.82-25-9Z"/>
                <path class="cls-38" d="M557.8,564.68c28.38,3.55,55.3,11.05,83.5,16.5-11.76,1.84-31.63-5.86-44.5-8.5-10.79-2.22-29.95-3.14-39-8Z"/>
                <path class="cls-38" d="M555.8,569.68c15.47,2.76,73.65,13.21,81,16,.64.24,2.92,1.43,2.5,2.5-22.31-4.12-44.26-10.12-66.5-14.5-9.27-1.83-18.53-.34-17-4Z"/>
                <path class="cls-38" d="M568.8,542.68c3.89-.6,65.72,17.44,76.5,18.5.54,3-23.35-5.88-26.5-2.5-8.87-6.11-46.74-11.79-51-14-.98-.51.76-1.96,1-2Z"/>
                <path class="cls-69" d="M513.8,691.68c4.34-.63,73.96,14.91,86.5,14.5-29.35-1.05-58.81-7.68-87.5-12.5-1.04-.34.69-1.96,1-2Z"/>
                <path class="cls-67" d="M553.8,572.68c25.42,8.47,53.55,10.91,79.5,19.5-.47,2.94-26.78-5.89-29.5-6.5-11.82-2.64-46.84-7.76-49-9-1.65-.95-2.13-3.41-1-4Z"/>
                <path class="cls-69" d="M560.8,558.68l80.5,17.5c-18.78-.51-36.5-7.66-54.5-11.5-1.4-.3-33.72-3.28-26-6Z"/>
                <path class="cls-69" d="M548.8,585.68c28.53,4.69,56.91,9.92,84.5,18.5-28.39-4.72-55.72-13.69-84.5-16.5v-2Z"/>
                <path class="cls-38" d="M518.8,677.68c27.77,1.47,55.19,7.49,82.5,12.5-22.8-.91-45.74-7.34-68.5-10.5-3.56-.49-13.59.92-14-2Z"/>
                <path class="cls-67" d="M610.3,560.68c-15.34-3.57-30.74-7.73-46-11.5.39-1.65,6.65-.23,10.5.5,15.61,2.97,43.72,11.61,63,16,.38.09,2.96-3.87,5,2-9.7-.4-17.46-5.37-27-4-.57-2.4-3.39-2.51-5.5-3Z"/>
                <path class="cls-67" d="M576.8,520.68l73.5,18.5c-.6.43-1.18,1.44-1.5,1.5-3.55.64-66.75-15.45-70-17-1.18-.56-3.55-1.61-2-3Z"/>
                <path class="cls-36" d="M462.3,691.68c-1.88.14-.13,1.74-10,1-6.19-.47-13.66-3.31-20-4,.11-.18.26-2.46,1.5-4,7.58,2.19,22.45,2.97,28,5,.89.33.38,1.95.5,2Z"/>
                <path class="cls-38" d="M465.3,663.68l1-4c10.32-.13,29.95,5.56,43,4.5-4.45,1.6-42.16.71-44-.5Z"/>
                <path class="cls-67" d="M574.8,525.68l51.5,14.5c-.58,2.2-31.72-8.01-34.5-8.5-6.23-1.1-31.23-.74-8.5-1.5l-8.5-4.5Z"/>
                <path class="cls-31" d="M599.3,609.68c-18.3-3.38-36.59-9.33-55.5-9-.98-.41-.29-2.17-.5-3,13.25,2.17,27.3,3.19,40.5,6,4.06.86,17.12,3.87,15.5,6Z"/>
                <path class="cls-31" d="M543.8,668.68l63.5,11.5c-10.57-.52-56.97-7.48-60.5-8.5-.88-.25-4.79-1.43-3-3Z"/>
                <path class="cls-36" d="M430.3,699.68c-4.24-1.63-.09-4.69,0-5,14.94,2.99,27.94,9.56,17.5,10-1.28.05-15.64-5.15-17.5-5Z"/>
                <path class="cls-69" d="M519.8,685.68c.29.03.24,2.27,5,3,14.56,2.23,29.14,4.17,43.5,7.5-.82.98-1.14,1.36-2.5,1.5-2.27.23-40.27-6.85-45-8-5.77-1.4-7.06-4.64-1-4Z"/>
                <path class="cls-65" d="M537.3,550.68c-.68-.17-1.27.53-1,1l-55-9c-.05-1.27.99-.93,1-1,18.52,1.53,36.71,6.29,55,9Z"/>
                <path class="cls-38" d="M504.8,712.68c8.46,3.62,40.01,6.25,42,7,13.5,5.06-29.7-4.04-29,1-1.35-1.44,1.66-2.72-1-4-10.8-5.2-15.16,6.59-12-4Z"/>
                <path class="cls-69" d="M544.8,703.68l54.5,7.5c-18.39.33-36.13-4.54-54.5-5.5v-2Z"/>
                <path class="cls-31" d="M520.8,672.68l21,1c58.66,12.29,4.46,1.27-20,1l-1-2Z"/>
                <path class="cls-38" d="M578.8,516.68c4.12,1.88,46.18,9.24,45.5,11.5-15.22-3.19-31.68-4.15-45.5-11.5Z"/>
                <path class="cls-38" d="M618.3,543.68c-15.29-3.18-30.79-5.68-46-9.5,13.13-1.24,31.96,5.67,46,9.5Z"/>
                <path class="cls-31" d="M555.8,715.68c1.93-.23,30.73,6.21,38.5,5.5-10.07,2.9-28.74-2.84-41-4,.94-.2,2.36-1.48,2.5-1.5Z"/>
                <path class="cls-31" d="M474.8,666.68c1.69-.25,2.5,1.98,3,2,45.43,1.89,30.28,3.48-3,2-.33-.16-.2-3.97,0-4Z"/>
                <path class="cls-69" d="M551.8,579.68c.73-1.14,23.25,5.57,26.5,5.5.05,1.76-29.44-.89-26.5-5.5Z"/>
                <path class="cls-67" d="M561.8,553.68c13.22,1.5,40.38,7.85,29,8-1.54.02-30.78-7.1-29-8Z"/>
                <path class="cls-38" d="M540.8,684.68c6.71-1.2,66.28,15.77-1.5,1.5.6-.43,1.18-1.44,1.5-1.5Z"/>
                <path class="cls-67" d="M510.3,627.68c-5.89.49-13.8-1-20-1v-1c5.93-.36,21.79-1.89,25.5,0,2.53,1.29-4.83,1.95-5.5,2Z"/>
                <path class="cls-36" d="M562.8,475.68c3.55-2.73,4.66,12.61,4,13-6.58,3.9-4.71-12.45-4-13Z"/>
                <path class="cls-69" d="M571.8,695.68c8.91-.98,60.14,12.85-2.5,1.5.94-.2,2.36-1.48,2.5-1.5Z"/>
                <path class="cls-38" d="M510.8,697.68l32.5,6.5c-9.6-.67-24.2-2.02-32.5-6.5Z"/>
                <path class="cls-31" d="M626.3,613.68c10.59,2.87-13.04.8-25-4,.23.04.78-1.7,4.5-1,3.7.7,16.23,3.84,20.5,5Z"/>
                <path class="cls-31" d="M593.3,516.68l1-1c39.36,7.47,33.06,8.97-1,1Z"/>
                <path class="cls-57" d="M483.3,694.68c.54,1.14,3.82,1.9,5,2,24.73,8.12-16.7-.65-16-3.5,3.26-.41,8.35,1.35,11,1.5Z"/>
                <path class="cls-67" d="M612.3,547.68c-.38-.07-4.44.68-5.5,1-34.48-10.69-14.33-6.67,5.5-1Z"/>
                <path class="cls-67" d="M610.3,560.68c-6.87,6.26,4.76.62,2.5,6-16.23-5.05-27.41-5.77-2.5-6Z"/>
                <path class="cls-69" d="M571.8,712.68c35.64,3.43,34.12,5.32,0,2v-2Z"/>
                <path class="cls-38" d="M618.3,543.68c9.7,2.02,19.47,3.86,29,6.5l-20.5-2.5c-6.97-2.39-8.05-3.88-8.5-4Z"/>
                <path class="cls-38" d="M618.3,606.68c-7.66-1.48-21.24-2.79-27-7,9.77,2.3,17.21,4,27,7Z"/>
                <path class="cls-31" d="M488.8,650.68l22.5,2.5c-2.4,1.97-23.77.59-22.5-2.5Z"/>
                <path class="cls-38" d="M509.8,702.68l21.5,5.5c-7.56-.66-23.48-2.64-21.5-5.5Z"/>
                <path class="cls-69" d="M544.8,708.68c1.06-.66,21.23,3.94,24.5,4.5-6.24.36-28.33-2.11-24.5-4.5Z"/>
                <path class="cls-38" d="M507.8,707.68c2.66-1.37,35.33,10.68-1.5,1.5.54-.38.99-1.24,1.5-1.5Z"/>
                <path class="cls-38" d="M612.3,547.68c2.01.39,21.45,3.67,21,5.5-5.48-.81-15.84-2.15-20.5-3.5-.87-.25-.4-1.97-.5-2Z"/>
                <path class="cls-67" d="M523.8,664.68c.29-.02,3.65,2.85,5,3,23.88,2.66,2.05,1.1-7,1-1.6-1.17,1.77-3.98,2-4Z"/>
                <path class="cls-69" d="M587.8,681.68c5.65-.97,37.4,8.49-1,2-1.04-.34.67-1.94,1-2Z"/>
                <polygon class="cls-69" points="583.8 692.68 603.3 696.18 583.8 694.68 583.8 692.68"/>
                <path class="cls-69" d="M570.3,725.68l-1-2c1.24-.25,27.28,3.94,21.5,5-1.02.19-18.38-2.37-20.5-3Z"/>
                <path class="cls-38" d="M569.8,537.68c1.43-.3,16.9,2.81,16.5,4.5-7.06-.9-22.88-3.14-16.5-4.5Z"/>
                <path class="cls-31" d="M535.3,684.68v1c-16.39.87-29.37-7.82,0-1Z"/>
                <path class="cls-67" d="M611.3,509.68c.78.24,9.9,1.61,16,3-5.44,1.98-22.24-3.07-16-3Z"/>
                <path class="cls-38" d="M623.8,521.68l18.5,3.5c-3.09,2.29-14.27-1.53-18.5-3.5Z"/>
                <path class="cls-31" d="M562.3,593.68c-2.71,1.82-11.7-.27-15-2,.24-.14-.96-1.86,1.5-2,.7-.04,6.46,2.86,13.5,4Z"/>
                <path class="cls-31" d="M619.8,565.68c2.38,2.73,21.32,2.73,20.5,5.5-7.08-1.25-21.99-2.09-20.5-5.5Z"/>
                <path class="cls-69" d="M579.8,584.68c1.69,1.76,11.44,1.77,12,2,9.61,3.97-12.68,2.4-12-2Z"/>
                <path class="cls-31" d="M488.3,696.68c-1.18-.1-4.46-.86-5-2,4.79.28,9.69-.2,14.5,0v2c-3.14-.18-6.38.26-9.5,0Z"/>
                <path class="cls-69" d="M638.8,530.68l13.5,2.5c.2,2.38-10.47.18-13.5-2.5Z"/>
                <path class="cls-44" d="M489.8,582.68c5.17-2.27,35.31,8.14,0,1l-.5-.5c.14-.22.3-.41.5-.5Z"/>
                <path class="cls-69" d="M536.8,712.68c7.31-1.27,22.64,7,4,3-2.38-.51-8.25-2.26-4-3Z"/>
                <path class="cls-38" d="M622.3,595.68c1.94.35,13.49,1.33,13,3.5l-8.5-.5c-1.18-.53-4.24-2.91-4.5-3Z"/>
                <path class="cls-69" d="M634.8,552.68c15.42,2.01,14.52,4.67,0,2v-2Z"/>
                <path class="cls-38" d="M490.3,684.68l1-1c14.77-3.55,17.25,1.78-1,1Z"/>
                <path class="cls-69" d="M627.3,609.68c-4.93-.56-8.12-2.73-9-3,3.39.66,13.76.9,13,3.5-.89,1.23-1.66-.24-4-.5Z"/>
                <path class="cls-31" d="M592.3,514.68v1c-1.3-.32-13.17-.4-12-3.5,4,.67,8,1.77,12,2.5Z"/>
                <path class="cls-31" d="M578.3,596.68c-2.78,2.05-9.43-.23-12-2,2.73.59,7.58,1.12,12,2Z"/>
                <path class="cls-57" d="M492.3,714.68c.38,2.89-1.36,1.74-3,2,.29-2.75-1.01-2.35-2,0-3.78.15-2.84-1-3-1,1.86-2.45,5.4-2.71,8-1Z"/>
                <path class="cls-69" d="M625.8,527.68l10.5,2.5c-3.48,1.29-8.06-.13-10.5-2.5Z"/>
                <path class="cls-67" d="M643.8,525.68c13.17,1.73,13.98,3.98,0,2v-2Z"/>
                <path class="cls-36" d="M468.3,692.68c-9.12.8-4.22-.26-6-1,3.22-.24-1.25-3.57,6,1Z"/>
                <path class="cls-69" d="M511.8,611.68c9.36.08,12.95,2.21,0,2v-2Z"/>
                <path class="cls-38" d="M490.3,709.68c-.85-.59-4.67,1.37-4-2,4.31.54,12.74.72,4,2Z"/>
                <path class="cls-31" d="M525.8,711.68c13.3.67,5.49,4.42,1,2-.9-.49-1.95-1.81-1-2Z"/>
                <path class="cls-36" d="M533.8,707.68c1.2.44,7.51,1.12,7.5,1.5-.01.93-7.59,1.01-7.5-1.5Z"/>
                <path class="cls-38" d="M622.3,595.68c-2.34-.42-5.18,1.11-7-1.5,2.16-1.22,5.1.85,7,1.5Z"/>
                <path class="cls-6" d="M466.3,659.68l-1,4c-4.38-2.88-3.12-3.95,1-4Z"/>
                <path class="cls-69" d="M645.8,543.68c4.55-.91,2.12,3.71-1,2-.97-.53.74-1.95,1-2Z"/>
                <path class="cls-36" d="M581.8,680.68c3.38-2.26,4.27,4.75,0,2-.85-.55-.84-1.44,0-2Z"/>
                <path class="cls-69" d="M557.8,721.68c5.85-.64-.29,5.69-1.5,1.5-.03-.1,1.39-1.49,1.5-1.5Z"/>
                <path class="cls-6" d="M511.8,632.68c.74-.53,3.22.08,2.5,1.5-.79,1.55-4.65.06-2.5-1.5Z"/>
                <path class="cls-36" d="M635.8,541.68c.74-.53,3.22.08,2.5,1.5-.79,1.55-4.65.06-2.5-1.5Z"/>
                <path class="cls-69" d="M655.3,522.68c-1.3,1.68-2.34.89-4,1,.93-2.42,2-2.39,4-1Z"/>
                <path class="cls-59" d="M611.8,592.68c2.1-.72,3.55,1.04,2,2-.89.56-3.17-1.6-2-2Z"/>
                <path class="cls-59" d="M484.8,681.68c.83-.51,2.56,1.37,2.5,1.5-.76,1.66-4.73-.14-2.5-1.5Z"/>
                <path class="cls-68" d="M535.3,685.68v-1c4.6.49,3.55.81,0,1Z"/>
                <path class="cls-36" d="M512.8,606.68c.64-.3,3.5-.06,3.5.5,0,1.13-5.47.42-3.5-.5Z"/>
                <path class="cls-68" d="M570.3,725.68c-.86-.25-2.39.52-3-.5.64-.63,1.02-1.3,2-1.5l1,2Z"/>
                <path class="cls-69" d="M515.8,631.68c1.49-.6,2.2,1.52,1,2-1.49.6-2.2-1.52-1-2Z"/>
                <path class="cls-6" d="M506.3,634.68c-1.47-.24-2.3.48-2-2,1.43.25,2.31-.51,2,2Z"/>
                <path class="cls-36" d="M602.8,689.68c1.49-.6,2.2,1.52,1,2-1.49.6-2.2-1.52-1-2Z"/>
                <path class="cls-6" d="M635.8,591.68c1.49-.6,2.2,1.52,1,2-1.49.6-2.2-1.52-1-2Z"/>
                <path class="cls-57" d="M573.3,681.68v-1c5.25.17,2.46,1.62,0,1Z"/>
                <path class="cls-6" d="M490.3,625.68v1c-.66,0-1.34-.02-2,0-.08-3.52.9-.93,2-1Z"/>
                <polygon class="cls-59" points="508.8 618.68 509.3 619.18 509.3 620.18 508.8 620.68 507.8 620.68 507.3 620.18 507.8 619.68 508.3 619.18 508.8 618.68"/>
                <path class="cls-36" d="M489.3,716.68c-.63.1-1.35-.03-2,0,.99-2.35,2.29-2.75,2,0Z"/>
                <path class="cls-23" d="M491.3,500.68v2c0-.12-.84.08-2-1.5.14-.84,1.98-.4,2-.5Z"/>
                <path class="cls-36" d="M586.3,508.68l-1,1c-2.22-1.04-3.49-1.18,1-1Z"/>
                <path class="cls-59" d="M573.3,680.68v1c-3.87-.98-2.46-1.08,0-1Z"/>
                <path class="cls-36" d="M615.8,565.68c.59-.28,2.5-.04,2.5.5,0,1.14-4.28.36-2.5-.5Z"/>
                <path class="cls-48" d="M491.3,683.68l-1,1c-2.59-1,.31-3.47,1-1Z"/>
                <path class="cls-36" d="M468.3,692.68c.66.41,1.37-1.69,2-.5-.06,3.16-1.9.49-2,.5Z"/>
                <path class="cls-68" d="M594.3,515.68l-1,1c-1.4-.33-.93-.98-1-1v-1c2.8.51,1.89.98,2,1Z"/>
                <g>
                  <path class="cls-36" d="M543.8,608.68l80,16-9.5,31.5-9.5.5-73-16c.11-10.93,5.26-1.82,10.5-5.5-13.85-1.32-7.95-15.57,5-11-11.65-2.59-10.16-2.84-3.5-15.5Z"/>
                  <path class="cls-44" d="M576.8,626.68l31.5,7.5c-8.34-.64-26.09-3.39-31.5-7.5Z"/>
                  <path class="cls-38" d="M597.8,624.68l23.5,6.5c-7-1.46-24.04-2.79-23.5-6.5Z"/>
                  <path class="cls-44" d="M584.8,621.68l11.5,3.5c-2.63.42-13.18-.08-11.5-3.5Z"/>
                  <path class="cls-38" d="M551.8,625.68c.51-.22,2.22-.16,2.5.5.59,1.41-6.23,1.14-2.5-.5Z"/>
                </g>
                <g>
                  <path class="cls-36" d="M572.8,477.68c.81-.32,2.52,1.2,3.5,1.5-5.84,18.1-.92,5.07,5.5-.5,3.81.6-6.29,11.24,2,12,6.77.62,3.94-17.24,16-9,7.76,5.3-1.53,10.55,1,12,8.32,4.77,3.66-13.51,10-12,3.54.85-3.16,13.29,1,15,5.77,2.37,3.64-17.16,9-13,2.48,1.93-4.02,13.36,0,15,4.33,1.77,6.83-22.36,10.5-11.5.28.83-7.57,17.51,1.5,14.5,4.2-1.4-.1-15.85,10-14,10.61,1.94-3.7,19.42,5,18,4.67-.76,2.29-16.55,10-14,9.43,3.13-1.04,10.11,3.5,18.5l-92.5-20.5c2.11-1.99,1.79-11.14,4-12Z"/>
                  <path class="cls-24" d="M640.8,488.68c.68-.47,2.28.95,2.5,1.5,2.7,6.7-10.28,25.02-2.5-1.5Z"/>
                  <path class="cls-24" d="M594.8,482.68c6.85-2.74,3.63,11.67-2,8-1-.66.57-7.43,2-8Z"/>
                  <path class="cls-33" d="M655.8,501.68c2.31.32,2.04,6.74-1,6-3.25-.79-.22-6.17,1-6Z"/>
                  <path class="cls-24" d="M657.8,494.68c2.22,1.7.51,6.04-2,5-1.4-.58,1.12-4.45,2-5Z"/>
                </g>
                <path class="cls-65" d="M515.3,507.68c-7.22-1.3-14.75-1.78-22-3,6.53-1.96,15.8.33,22,3Z"/>
                <path class="cls-65" d="M565.3,510.68c-.73,2.16-10.76-1.21-8-2,2.9.71,4.62.89,8,2Z"/>
                <path class="cls-65" d="M545.3,505.68c-.51,2.75-3.96,2.19-5,0,1.6.19,3.42-.24,5,0Z"/>
                <path class="cls-65" d="M526.3,502.68c.61,4.14-6.5.58-4,0,1.26.22,2.75-.24,4,0Z"/>
                <path class="cls-24" d="M537.3,504.68c-1.33,2.68-2.86.05-3,0,.99.02,2.01-.03,3,0Z"/>
                <g>
                  <path class="cls-49" d="M491.8,486.68c2.13-.91,43.75,4.45,46,5,7.44,1.83-11.49.47,7.5,6.5l-52.5-4.5c-2.89.18-1.4-6.83-1-7Z"/>
                  <path class="cls-9" d="M497.8,488.68c1.23-.16,15.86,2.91,15.5,4.5-3.33-.65-8.64.71-9.5-2.5-.57-.05.85,4.5-9.5-.5,1.27-.06,3.31-1.48,3.5-1.5Z"/>
                  <path class="cls-9" d="M531.8,492.68c1.28.9.53,4.4-1,2-.63-.99.88-2.08,1-2Z"/>
                </g>
                <g>
                  <path class="cls-36" d="M494.8,468.68c7.92-2.03,8.82,9.88,6,12-.34.26-8.25-1.15-8.5-1.5-.36-.52-.73-9.67,2.5-10.5Z"/>
                  <path class="cls-24" d="M495.8,470.68c2.64-1.89,3.14,7.93,1,8-1.78.06-2.09-7.22-1-8Z"/>
                </g>
              </g>
            </g>
            <g>
              <path class="cls-26" d="M880.3,384.68c-31.03,40.95-66.19,79.73-85,128.5l-3.5,3.5c-24.29,3.32-58.49,14.52-36.5,42.5-13.53,6.3-13.61,12.11-10,24.5l-31.5,16c-6.17,7.66,26.52-14.4,26.5-9.5-8.15,5.7-27.46,11.89-28.5,17.5,41.51-22.71,34.16-15.19-2.5,4.5l.5,1.5c55.8-25.37,7.36-4.05,0,2-1.04.85-2.29,1.89-1,3,9.42-7.15,21.06-8.85,31.5-14-.11.62.03,1.35,0,2-11.28,5.31-24.46,8.05-34,16.5l34-14.5c1.85,9.65,7.87,12.71,8,13.5.56,3.39-10.64,45.43-9,68-39.75,11.61-91.66,38.58-127,60.5,0-2.06-1.89.74-2-.5-.38-4.21,17.18-72.71,20-82,7.3-24.06,18.59-46.98,26-71,5.38-17.44,25.42-103.73,32-111.5,48.63-35.44,103.93-57.75,157.5-84,18.24-8.94,29.26-17.56,31-18,1.3-.32,1.82,1.49,3.5,1Z"/>
              <g>
                <path class="cls-36" d="M745.3,583.68c1.02,3.5,4.4,4.49,4,7.5-2.66,3.77-8.17,8.94-9,13.5-10.44,5.15-22.08,6.85-31.5,14-1.29-1.11-.04-2.15,1-3,7.36-6.05,55.8-27.37,0-2l-.5-1.5c36.66-19.69,44.01-27.21,2.5-4.5,1.04-5.61,20.35-11.8,28.5-17.5.02-4.9-32.67,17.16-26.5,9.5l31.5-16Z"/>
                <path class="cls-6" d="M740.3,606.68c-.01.29-.02,1.9,0,2l-34,14.5c9.54-8.45,22.72-11.19,34-16.5Z"/>
                <path class="cls-36" d="M683.8,653.68c2.11,5.14-4.51,5.23-4.5,6.5,0,.63,8.41-1.5,1,8-2.26,2.9-14.26,6.47-18,10l.5,1.5,16-9c.92,18.23-28.57,20-43.5,29.5l1-11c47.37-24.74,62.85-31.45,2-5,3.08-11.3,4.53-6.98,13-13-27.78,8.17,13.63-8.77,32.5-17.5Z"/>
                <path class="cls-36" d="M686.8,633.68c6.66-1.54-.38,12.49-1,13-1.67,1.38-35.06,12.35-40.5,15.5-5.12-8.81,35.7-23.74,42.5-24.5-3.21-1-5.51-2.95-1-4Z"/>
                <path class="cls-69" d="M673.8,684.68c4.97,1.94-16.99,7.39-.5,5.5,1.56,2.94-38.98,22.88-43,26l2.5-5.5c5.03,1.28,20.54-10.71,30.5-15.5-.9-2.24-52.09,26.72-17,4-4.38-.62-9.68,5.51-13,5-.86-2.85,36.97-16.03,40.5-19.5Z"/>
                <path class="cls-36" d="M682.8,648.68c13.44,1.25-26.85,14.28-38,21-10.14-2,35.67-21.22,38-21Z"/>
                <path class="cls-36" d="M823.8,446.68c2.07-.18,1.71.72,0,2-11.81,8.83-44.29,20.67-59.5,26.5l5.5-4.5c19.1-5.15,35.63-16.78,54-24Z"/>
                <path class="cls-36" d="M805.8,475.68c1.73,2.02-3.23,4.13-5,5-9.93,4.91-33.42,12.47-46.5,19.5,15.84-10.82,34.52-15.9,51.5-24.5Z"/>
                <path class="cls-36" d="M725.8,533.68c1.66.01,2.2.81,1,2l-48.5,23.5c5.16-4.24,44.8-25.52,47.5-25.5Z"/>
                <path class="cls-36" d="M803.8,468.68c4.05.41-3.75,3.8-9,7l-36.5,12.5,45.5-19.5Z"/>
                <path class="cls-36" d="M697.8,601.68c.95-.19,2.77-.23,3.5.5,1.31,1.89-38.37,16.64-41,20,2.2-4.45,35.39-20.08,37.5-20.5Z"/>
                <path class="cls-36" d="M805.3,473.68c-15.44,8.6-33.14,13.69-49,21.5,13.91-8.82,33.14-17.15,49-21.5Z"/>
                <path class="cls-36" d="M798.8,482.68c13.38-2.42-12.98,6.54-14,7-10.65,4.75-19.88,12.78-31.5,15.5,9.21-5.53,38.2-21.18,45.5-22.5Z"/>
                <path class="cls-36" d="M791.8,501.68c4.07,1.58-32.68,17.66-35,19-3.67,2.12-11.39,10.42-12.5,7.5,14.08-11.9,31.49-17.76,47.5-26.5Z"/>
                <path class="cls-36" d="M794.8,491.68c.98-.04,2.27-.24,2.5.5-17.15,6.3-32.01,18.1-49,25l30.5-18.5c2.71-1.36,14.75-6.94,16-7Z"/>
                <path class="cls-36" d="M689.3,581.68c7.92-2.93,15.69-5.71,23-10-14.2,11.01-73.01,35.24-23,10Z"/>
                <path class="cls-36" d="M709.8,576.68l1.5.5c-50.74,26.7-59.7,25.75-1.5-.5Z"/>
                <path class="cls-36" d="M796.8,487.68c8.61-.36-10.53,5.33-12,6-12.63,5.73-41.92,24.71-32,15,9.78-3.47,36.33-20.68,44-21Z"/>
                <path class="cls-36" d="M706.8,582.68l1.5,1.5c-51.55,23.12-55.12,21.6-1.5-1.5Z"/>
                <path class="cls-36" d="M693.8,622.68c2.09,3.37-2.13,3.16-4,5-5.62.16-34.06,15.2-36,15-.27-.03-.89-1.04-1.5-1.5l41.5-18.5Z"/>
                <path class="cls-36" d="M705.8,587.68c2.07-.18,1.71.73,0,2-2.81,2.09-33.58,13.97-40.5,15.5l40.5-17.5Z"/>
                <path class="cls-36" d="M732.8,525.68c-7.33,7.66-29.51,16.13-41.5,22.5l41.5-22.5Z"/>
                <path class="cls-6" d="M698.8,606.68v2c-55.17,26.09-52.17,21.87,0-2Z"/>
                <path class="cls-36" d="M701.8,596.68l-2,3c-54.66,24.02-44.64,16.72,2-3Z"/>
                <path class="cls-6" d="M690.8,613.68c.79-.08,2.25-.24,2.5.5-3.84.37-37.75,22.75-37,18,6.5-3.01,31.02-18.16,34.5-18.5Z"/>
                <path class="cls-36" d="M703.8,591.68c-3.57,5.93-28.87,14.49-39.5,18.5l39.5-18.5Z"/>
                <path class="cls-6" d="M736.8,620.68v2c-19.07,6.08-59.6,33.36-19,6l19-8Z"/>
                <path class="cls-36" d="M759.3,514.68c11.33-7.16,23.25-14.12,36-18.5-9.67,8.15-25.78,12.72-36,18.5Z"/>
                <path class="cls-36" d="M736.8,611.68c7.98.78-2.68,2.84-3,3-10.4,5.36-21.24,9.88-31.5,15.5,2.77-4.2,32.54-18.69,34.5-18.5Z"/>
                <path class="cls-6" d="M736.8,616.68c4.07,2.62-9.43,4.75-10,5-13.42,5.96-40.71,23.83-10,3l20-8Z"/>
                <path class="cls-36" d="M735.8,624.68c5.72.67-10.94,5.92-20,11-4.7,2.64-11.48,9.82-16.5,10.5,4.23-5,33-21.91,36.5-21.5Z"/>
                <path class="cls-6" d="M787.8,470.68c8.91-.45-20.4,11.33-26.5,12.5-.53-1.37,24.98-12.42,26.5-12.5Z"/>
                <path class="cls-68" d="M789.8,506.68c1.31,1.14.04,2.07-1,3-12.09,10.76-50.64,22.94,1-3Z"/>
                <path class="cls-6" d="M715.3,506.68c-.41.26-4.33,4.03-7.5,6-22.15,13.77-33.15,15.64,7.5-6Z"/>
                <path class="cls-36" d="M732.8,521.68c.79-.07,2.27-.24,2.5.5-64.1,33.66-8.85.1-2.5-.5Z"/>
                <path class="cls-36" d="M675.8,637.68c11.44-2.17-17.14,8.17-27.5,14.5.46-3.79,25.92-14.2,27.5-14.5Z"/>
                <path class="cls-36" d="M698.3,523.68c-2.84,1.47-5.3,1.84-8,4-8.87,3.5,1.08-9.62-1.5-1,8.2-5.24,32.33-21.62,9.5-3Z"/>
                <path class="cls-6" d="M819.8,455.68c1.31,1.13.04,2.08-1,3-9.66,8.53-51.97,26.36,1-3Z"/>
                <path class="cls-36" d="M816.8,453.68c8.77-2.26-24.49,16.98-25.5,14.5,4.6-1.92,24.08-14.13,25.5-14.5Z"/>
                <path class="cls-36" d="M735.8,584.68c7.71-1.59-11.31,8.23-21.5,12.5,1.61-2.82,20.28-12.25,21.5-12.5Z"/>
                <path class="cls-36" d="M677.3,625.68c-.28.19-2.72,3.77-4.5,5l-18.5,7.5c-.55-1.19,13.21-7.03,23-12.5Z"/>
                <path class="cls-36" d="M690.8,628.68c.57.03,1.36-.19,1.5.5-45.14,20.95-7.68-.84-1.5-.5Z"/>
                <path class="cls-36" d="M693.8,618.68c.57-.03,1.25-.19,1.5.5-34.12,20.99-7.33-.22-1.5-.5Z"/>
                <path class="cls-36" d="M765.3,477.68c2.56-1.88,18.51-9.94,19-7.5-6.23,2.9-12.47,5.33-19,7.5Z"/>
                <path class="cls-36" d="M665.8,638.68c3.66,1.5-14,8.43-14.5,6.5l14.5-6.5Z"/>
                <path class="cls-36" d="M687.3,619.68c-3.88,2.75-6.04,3.79-10,6,.48-.33-.72-1.34,10-6Z"/>
                <path class="cls-36" d="M753.3,518.68c-1.01.7-5.6,6.79-8,5.5,3.16-4.09,7.6-5.22,8-5.5Z"/>
                <path class="cls-69" d="M696.8,611.68c1.32-.16.62,3.37.5,3.5-5.92,6.65-2.83-3.21-.5-3.5Z"/>
                <path class="cls-36" d="M701.8,538.68c2.49.07.94,1.42,0,2-9.49,5.91-5.81-2.17,0-2Z"/>
                <path class="cls-36" d="M812.8,463.68c2.05-.18,1.75.67,0,2-4.4,3.34-9.1,2.24,0-2Z"/>
                <path class="cls-36" d="M759.3,514.68c-1.85,1.17-4.17,2.74-6,4,2.2-1.53,2.08-1.78,6-4Z"/>
                <path class="cls-36" d="M687.3,619.68c.2-.09.99-3.37,4-1.5-1.55,1.25-3.83,1.38-4,1.5Z"/>
                <path class="cls-36" d="M805.3,473.68c.21-.06,2.56-3.05,4-1.5-1.33,2.23-3.49,1.22-4,1.5Z"/>
                <path class="cls-36" d="M689.8,545.68c.63-.09,1.32-.12,1.5.5.84,2.86-6.04.13-1.5-.5Z"/>
                <path class="cls-36" d="M765.3,477.68c-.12.04-.87,2.64-2,1.5-.34-2.2,1.68-1.27,2-1.5Z"/>
                <g>
                  <path class="cls-69" d="M690.3,527.68c2.7-2.16,5.16-2.53,8-4,.16-.08.32,1.7,3.5,0,5.51-2.95,11.08-6.83,16.5-10,4.08-.63,5.92-1.92,9-4.5-4.31-.61-8.57,4.25-9,4.5-17.93,2.75,5.99-8.79,17-18,7.42-6.21,8.91-7.58-1-2-8.51,2.41-53.41,30.99-42,20.5-5.26-21.95,43.41-38.8,61.5-49.5,1.23.81-5.17,24.35-9.5,24.5,2.8.91,1.28,6.41,0,8-1.96,2.43-21.14,10.06-1,3-3.54,13.57-12.33,16.89-12,18,.32,1.09,7.5-2.42,3.5,1.5-1.44,1.41-27.93,12.53-34,16-3.27,1.87-8.49,7.68-9,8-15.51,9.55-15.53-.6,6.5-12.5l-14.5,6.5c18.22-13.86-8.18,1.7,6.5-10Z"/>
                  <g>
                    <path class="cls-6" d="M735.3,495.68c-6.9,3.26-13.26,7.41-20,11,6.37-4.03,12.36-9.26,19-13,9.91-5.58,8.42-4.21,1,2Z"/>
                    <path class="cls-33" d="M722.8,521.68c9.72-2.05-20.34,11.17-22,12-3.91,1.96-5.63,4.88-6,5-11.04,3.6,20.7-15.46,28-17Z"/>
                    <path class="cls-24" d="M727.8,515.68c.57-.03,1.25-.19,1.5.5-46.97,24.96-8.58-.15-1.5-.5Z"/>
                    <path class="cls-26" d="M726.8,511.68c8.58-.9-12.57,10.2-13.5,7.5,2-1.37,12.73-7.42,13.5-7.5Z"/>
                    <path class="cls-26" d="M726.8,503.68c.61-.08,1.29-.13,1.5.5-20.92,16.64-7.6.35-1.5-.5Z"/>
                    <path class="cls-10" d="M713.8,491.68c.64-.13,1.31-.09,1.5.5-22.09,20.08-5.85.4-1.5-.5Z"/>
                    <path class="cls-26" d="M718.3,513.68c.43-.25,4.69-5.11,9-4.5-3.08,2.58-4.92,3.87-9,4.5Z"/>
                    <path class="cls-26" d="M716.3,497.68c-1.5,1.12-5.45,6.66-9,5.5,2.48-2.57,6.11-3.73,9-5.5Z"/>
                    <path class="cls-37" d="M744.8,479.68c5.05.33-3.18,4.53-2.5,1.5.03-.14,2.35-1.51,2.5-1.5Z"/>
                    <path class="cls-26" d="M721.3,494.68c-1.82,1.18-3.25,1.93-5,3,2.97-2.21,4.42-2.59,5-3Z"/>
                    <path class="cls-26" d="M724.3,492.68c-1.09,1.15-1.85,1.25-3,2,.52-.36-.36-.21,3-2Z"/>
                    <path class="cls-26" d="M736.8,483.68c2.57-1.36,2.89,1.79,1,2-.11.01-2.02-1.46-1-2Z"/>
                    <path class="cls-26" d="M724.3,492.68c.11-.06-.42-3.32,2-1.5-1.07,1.45-1.91,1.41-2,1.5Z"/>
                  </g>
                </g>
                <g>
                  <path class="cls-69" d="M711.3,664.68c-.56.21-6.12.51-11.5,3-18.17,11.22,3.67.75,11.5-3,6.65-2.47,13.26-4.51,19.5-8,9.49,13.84-32.29,24.25-45.5,32.5l12-40,38.5-21.5c-1.18,5.75-2,22.56-3.5,25.5-1.02,1.99-17.5,9.83-21,11.5Z"/>
                  <path class="cls-44" d="M715.8,666.68c2.23.05,1.48.9,0,2-55.86,27.73-3.96-2.09,0-2Z"/>
                  <path class="cls-26" d="M711.3,664.68c-7.83,3.75-29.67,14.22-11.5,3,5.38-2.49,10.94-2.79,11.5-3Z"/>
                </g>
                <g>
                  <path class="cls-28" d="M835.8,419.68c9.26-.08-10.66,12.33-.5,8.5-3.18,3.47-6.01,13.47-8.5,15.5-2.18,1.78-48.32,23.12-51,24-.56.18,1.86-4.25-9.5,2.5.84-3.11,2.1-10.25,3-12,4.65-9.06,62.63-38.47,66.5-38.5Z"/>
                  <path class="cls-10" d="M797.3,450.68c-9.98,5.44-35.59,19.86-19.5,8,1.02-.75,16.1-7.21,19.5-8Z"/>
                  <path class="cls-10" d="M797.3,450.68c8.18-4.46,16.2-9.3,25-12.5l-25,12.5Z"/>
                </g>
                <g>
                  <path class="cls-69" d="M714.3,547.68c-.64.34.57-1.84-5,1-1.73.88-13.93,5.73-14,6.5,2.97,4.31,13.13-6.11,14-6.5.34-.15-.39,1.45,5-1,4.89-2.22,10.21-3.45,14.5-7-6.19,7.8-22.31,12.93.5,5.5-10.48,6.28-36.01,17.38-21.5,13.5,1.45-.39,36.71-18.64,17-3-1.37,1.09-10.51.78-12.5,15-7.31,4.29-15.08,7.07-23,10-5.75,2.13-12.43,2.7-17.5,7l-1.5-1.5c1.73-5.4,8.62-5.22,3-8,6.18-3.42.89-5.56,1-6,.14-.56,3.93-1.48,4-2,.34-2.47-2.76-.94-3-2-.08-.36,4-2.13,2-6l52.5-27.5c2.22-.06,1.6.53,0,2-.68.62-14.68,9.57-15.5,10Z"/>
                  <g>
                    <path class="cls-26" d="M698.8,557.68l1,2c-22.19,10.93-23.06,9.31-1-2Z"/>
                    <path class="cls-26" d="M709.3,548.68c-.87.39-11.03,10.81-14,6.5.07-.77,12.27-5.62,14-6.5Z"/>
                    <path class="cls-33" d="M715.8,556.68c.2,0,2.06,1.61,1,2-14.15,7.07-3.81-2.1-1-2Z"/>
                    <path class="cls-45" d="M705.8,564.68c4.9.19-4.02,4.71-4.5,3.5-.42-1.05,4.22-3.51,4.5-3.5Z"/>
                    <path class="cls-26" d="M714.3,547.68c-5.39,2.45-4.66.85-5,1,5.57-2.84,4.36-.66,5-1Z"/>
                    <path class="cls-45" d="M684.8,574.68c2.1-.72,3.55,1.04,2,2-.89.56-3.17-1.6-2-2Z"/>
                  </g>
                </g>
              </g>
            </g>
          </g>
          <g>
            <path class="cls-66" d="M37.3,455.68c7.86,11.9,7.8,47.5,7,62.5,0,.18-1.99,2.82-2,3-.56,11.25.33,19.36-3,31-.2,4.4,1.07,8.93,1,15.5-.84,74.6,18.49,134.32,74.5,185,16.91,15.3,62.88,45.76,84,50,3.28.66,5.68-2.01,6-2,.83.02,6.92,6.4,7.5-.5.21-2.53-19.79-19.49-23-41l-4-2.5,2-1c.68,1.36,5.3,7.38,6,3,4.27,14.64,13.7,28.78,26.5,37,14.27-12.51,25.21-9.45,27-10,4.33-1.34,14.08-8.22,28.5-9,22.3-1.2,46.47,13.56,43.5,15-18.67-12.45-43.8-16.23-64.5-6.5,6.11,4.35,14.07,6.04,17.5,13.5-37.04-31.03-48.1,9.54-66,7-8.77,3.89-20.48,27.14-16.5,35h-3c-.37-1.27-.93-2.71-1-4-.18-3.11,1.79-10.82,3-14,2.19-5.73,6.67-11.2,11-15.5-96.03-36.73-159.54-113.89-163-219-1.15-35.08,17.07-130.37-7-138.5,4.15,1.64,5.44,2.12,8,6Z"/>
            <path class="cls-50" d="M100.3,545.68c-.87,2.86-13.3,24.36-4,14l5,9c-.26.44,1.1,1.94-3,6-.94.93-6.77,6.6-8,5.5-1.62-9.45-5.07-18.97-6-28.5l16-6Z"/>
            <path class="cls-19" d="M41.3,432.68c-3.09,1.81.28,1.48,3,3-1.45,2.23-7.71-1.5-13.5-1-11.37.99-35.31,15.74-24.5,17v1c-8.19-1.61-7.08-4.08-4-11,1.67-3.74,3.85-5.6,7-8,15.9-5.83,16.86-7,32-1Z"/>
            <path class="cls-66" d="M29.3,449.68c-7-2.36-16,4.38-23,3v-1c7.83.91,11-6.74,23-2Z"/>
            <path class="cls-34" d="M223.3,818.68c-.76,1.83-2.43,2.95-4,4-11.96,8.03-7.92,25.44-14,29-4.63-.19-9.37.27-14,0,2.08-2.38-3.74-6.63-5-11h3c2.1,4.15,11.81,5.22,12.5,5,2.02-.64,9.57-42.27,19-36,3.82,2.54-11.41,8.7,2.5,9Z"/>
            <path class="cls-2" d="M44.3,435.68c18.32,10.19,23.33,30.21,27,49.5.88,4.62-1.05,5.7-1,6,.07.37,1.87.04,3,7,1.33,8.17.8,22.82,1,24,4.84,29.27,11.03,70.6,26,96,18.19,30.86,49.87,45.46,85,35.5.05.35-2.73,5.17,0,7-1.48,5.15-8.23,25.42-2,24-1.07,1.51-4.9,10.74-5.5,11-66.53,5.87-113.11-40.35-123.5-103.5-5.99-36.38,1.45-122.23-14-137-1.82-1.74-3.01-2.69-3,.5-2.56-3.88-3.85-4.36-8-6-12-4.74-15.17,2.91-23,2-10.81-1.26,13.13-16.01,24.5-17,5.79-.5,12.05,3.23,13.5,1Z"/>
            <path class="cls-48" d="M403.3,658.68c30.6,19.43,44.62-5.34,30-22,13.32,5.05,20.44,2.68,18,19.5-3.86,26.6-51.26,27.49-71.5-6.5-26.71,26.46-74.69,30.63-99.5-.5-16.53-20.74-20.57-51.86-21-77.5,4.36,15.17,5.81,31.67,14,45.5,22.02,37.21,77.98,43.58,106.5,10.5,4.26,12.67,12.13,23.78,23.5,31Z"/>
            <path class="cls-71" d="M259.3,559.68c-5.72-1.48-4.35,26.47-3,37.5,4.11,33.5,24.76,73.48,62,77.5,3.37,7.84,17.19,8.19,25,9,.72,9.1,2.79,17.84,4,27-61.11-.62-109.37-68.55-102-126.5,1.75-13.76,11.66-27.09,15-40.5.98.92-.8,7.91-1,16Z"/>
            <path class="cls-71" d="M341.3,402.68c1.5,4.48,3.34,9.53,5,14-5.16.24-16.69-.2-20,3.5-3.1,3.47-18.3,76.29-30.5,78.5-10.25,1.86,3.75-14.04,1.5-18,12.62-31.37,12-60.9,8-94,7.4-5.45,27.75,23.28,36,16Z"/>
            <path class="cls-48" d="M353.3,688.68c13.92,27.29,16.09,88.43,3,111-.07.12-2.53-.8-2,2-4.1-.62-7.97,1.2-12,.5,10.43-29.38,9.04-61.05,5-91.5-1.21-9.16-3.28-17.9-4-27,.38.04,6.38-.66,7.5-1,2.1,1.68,1.11,3.28,2.5,6Z"/>
            <path class="cls-3" d="M294.3,855.68c-28.81.26-32.19,2.93-27-18.5.51-2.1,2.85-7.28,4-9.5,10.45,5.49,14.32-8.67,21,2.5,2.67,4.47,3.54,19.86,2,25.5Z"/>
            <path class="cls-48" d="M432.3,632.68c20.52,4.06,36.34-18.79,23-36,29.66-.58,25.62,48.28-11.5,42-3.09-.52-8.57-4.48-11.5-6Z"/>
            <path class="cls-63" d="M288.3,815.68c14.77.68,22.83,24.77,24,37-.11.15-2.51-.81-2,2-5.39.09-10.56.95-16,1,1.54-5.64.67-21.03-2-25.5-6.68-11.17-10.55,2.99-21-2.5,3.85-7.44,7.92-12.42,17-12Z"/>
            <path class="cls-71" d="M447.3,587.68c17.54-1.4,23.58-25.61,0-32,.08-5.7,18.55,2.85,22.5,6,15.69,12.51,9.68,38.33-11,33-4-1.03-7.91-5.31-11.5-7Z"/>
            <path class="cls-3" d="M235.3,852.68c-3.56-.1-23.77.2-25-2.5,1.26-9.36,3.49-18.79,9-26.5,2.96-.48,3.06,2.98,3.5,3,2.19.1,18-12.72,12.5,26Z"/>
            <path class="cls-30" d="M312.3,852.68c-1.17-12.23-9.23-36.32-24-37-.56-5.74-7.13.34-9.5,0,4.01-7.55-7.33,2.29-9.5,5.5-6.71,9.9-6.03,22.58-8,27.5-5.01-22.7,12.44-54.98,38.5-39,12.45,7.63,16.16,38.02,12.5,43Z"/>
            <path class="cls-63" d="M254.3,852.68c-1.59.26-14.86.12-19,0,5.5-38.72-10.31-25.9-12.5-26-.44-.02-.54-3.48-3.5-3v-1c1.57-1.05,3.24-2.17,4-4,11.25-5.31,14.36,1.62,17-1.5,6.77,11.75,10.4,22.47,14,35.5Z"/>
            <path class="cls-30" d="M433.3,636.68c14.62,16.66.6,41.43-30,22-.31-5.07,20.65,4.76,26-7.5,2.96-6.77-1.96-12.92-3-19.5,2.11,1.86,5.1,2.83,7,5Z"/>
            <path class="cls-4" d="M98.3,530.68c5.83,5.3,3.89,8.78,2,15l-16,6c-.25-2.56-1.2-18.07-1-19,4.34-3.16,9.98-3.81,15-2Z"/>
            <path class="cls-48" d="M348.3,671.68c1.11,3.98,4.25,7.95,5,12,.06.31-.01.68,0,1,.04,1.32-.03,2.67,0,4-1.39-2.72-.4-4.32-2.5-6-1.12.34-7.12,1.04-7.5,1-7.81-.81-21.63-1.16-25-9,9.13.99,21.06-.71,30-3Z"/>
            <path class="cls-48" d="M183.3,684.68c6.3-8.87,16.37-21.89,25-28-11.27,21.23-32.03,76.79-21,99l-2,1c-98.38-21.12-140.72-92.32-145-189,.07-6.57-1.2-11.1-1-15.5,3.33-11.64,2.44-19.75,3-31,0-.18,1.99-2.82,2-3,.8-15,.86-50.6-7-62.5-.01-3.19,1.18-2.24,3-.5,15.45,14.77,8.01,100.62,14,137,10.39,63.15,56.97,109.37,123.5,103.5.6-.26,4.43-9.49,5.5-11Z"/>
            <path class="cls-64" d="M185.3,756.68l4,2.5c3.21,21.51,23.21,38.47,23,41-.58,6.9-6.67.52-7.5.5-.32,0-2.72,2.66-6,2-21.12-4.24-67.09-34.7-84-50-56.01-50.68-75.34-110.4-74.5-185,4.28,96.68,46.62,167.88,145,189Z"/>
            <path class="cls-48" d="M275.3,776.68c-14.42.78-24.17,7.66-28.5,9-1.79.55-12.73-2.51-27,10-12.8-8.22-22.23-22.36-26.5-37-12.44-42.69,8.55-82.08,28-118,4.36,2.21-4.85,19.86-7,30.5-8.01,39.73-4.16,78.28,36.5,96.5,9.05,4.05,23.29,5.61,24.5,9Z"/>
            <path class="cls-18" d="M221.3,640.68c-19.45,35.92-40.44,75.31-28,118-.7,4.38-5.32-1.64-6-3-11.03-22.21,9.73-77.77,21-99,5.56-10.47,29.11-45.75,13-16Z"/>
            <g>
              <path class="cls-2" d="M346.3,416.68c.05.13,1.95,1.87,2,2,15.61,41.74,34.41,85.15,26,131-15.28-5.74-46.32-5.63-56,10-.71.73-4.94,6.09-5,6.5-.99,6.96,10.64-7.67,22.5-9.5,22.26-3.43,35.83,12.18,36.5-4,2.22.72,5.83.01,7,3-8.71,9.51-16.02,20.41-18,33.5-2.24,14.83,2.86-7.06,12-21.5,8.64-4.25,14.46-12.97,22.5-18,11.7-7.32,25.41-7.03,16.5-11,12.64-1.37,26.34,1.77,35,11.5l-21,3c7.15.64,13.99.6,21,2.5,23.58,6.39,17.54,30.6,0,32-4.13-1.95-9.24-4.7-14-4.5,5.53,2.83,18.71,9.26,22,13.5,13.34,17.21-2.48,40.06-23,36-12.33-6.38-24.72-17.48-6-1,1.04,6.58,5.96,12.73,3,19.5-5.35,12.26-26.31,2.43-26,7.5-11.37-7.22-19.24-18.33-23.5-31-28.52,33.08-84.48,26.71-106.5-10.5-8.19-13.83-9.64-30.33-14-45.5-.07-3.97-.1-8.03,0-12,.2-8.09,1.98-15.08,1-16-.76-3.55-10.18,7.57-14,12,17.11-28.42,38.08-42.91,51-75,2.25,3.96-11.75,19.86-1.5,18,12.2-2.21,27.4-75.03,30.5-78.5,3.31-3.7,14.84-3.26,20-3.5Z"/>
              <path class="cls-3" d="M412.3,538.68c8.91,3.97-4.8,3.68-16.5,11-8.04,5.03-13.86,13.75-22.5,18,8.18-12.93,23.06-27.27,39-29Z"/>
              <path class="cls-34" d="M374.3,549.68c.34.13,1.27,2.27,6,4-.08.08.4.47-1,2-1.17-2.99-4.78-2.28-7-3-16.51-5.34-40.9-6.58-54,7,9.68-15.63,40.72-15.74,56-10Z"/>
              <path class="cls-63" d="M287.8,544.68c24.15-3.17,17.57,43.39-3,40-15.55-2.57-13.59-37.83,3-40Z"/>
            </g>
            <path class="cls-3" d="M372.3,552.68c-.67,16.18-14.24.57-36.5,4-11.86,1.83-23.49,16.46-22.5,9.5.06-.41,4.29-5.77,5-6.5,13.1-13.58,37.49-12.34,54-7Z"/>
            <g>
              <path class="cls-71" d="M372.3,815.68c10.54,12.19,11.85,17.82,11,34.5-2.37,4.97-31.09,2.3-36,2.5-5.54-20.48,8.8-49.39,25-37Z"/>
              <path class="cls-63" d="M358.8,822.68c.5-.04,7.1,3.71,8.5,5.5,4.82,6.14,7.72,25.87-11.5,21.5-12.38-2.82.59-26.79,3-27Z"/>
            </g>
            <g>
              <path class="cls-19" d="M260.3,543.68c-3.34,13.41-13.25,26.74-15,40.5-7.37,57.95,40.89,125.88,102,126.5,4.04,30.45,5.43,62.12-5,91.5,4.03.7,7.9-1.12,12-.5,4.88.74,14.53,9.99,18,14-16.2-12.39-30.54,16.52-25,37-12.23.51-24.76,1.79-37,2-.51-2.81,1.89-1.85,2-2,3.66-4.98-.05-35.37-12.5-43-26.06-15.98-43.51,16.3-38.5,39-.31.77.55,2.42-.5,3-4.32-.6-5.88.9-6.5,1-3.6-13.03-7.23-23.75-14-35.5-2.64,3.12-5.75-3.81-17,1.5-13.91-.3,1.32-6.46-2.5-9-9.43-6.27-16.98,35.36-19,36-.69.22-10.4-.85-12.5-5-3.98-7.86,7.73-31.11,16.5-35,17.9,2.54,28.96-38.03,66-7-3.43-7.46-11.39-9.15-17.5-13.5,20.7-9.73,45.83-5.95,64.5,6.5,2.97-1.44-21.2-16.2-43.5-15-1.21-3.39-15.45-4.95-24.5-9-40.66-18.22-44.51-56.77-36.5-96.5,2.15-10.64,11.36-28.29,7-30.5,16.11-29.75-7.44,5.53-13,16-8.63,6.11-18.7,19.13-25,28-6.23,1.42.52-18.85,2-24,6.89-23.88,44.18-85.48,61-105,3.82-4.43,13.24-15.55,14-12Z"/>
              <g>
                <path class="cls-63" d="M254.8,685.68c34.26-3.51,59.75,34.43,41.5,60.5-20.6,29.44-86.69,11.45-79-34,2.31-13.65,24.87-25.21,37.5-26.5Z"/>
                <path class="cls-3" d="M243.8,693.68c20.16-3.81,13.8,31.45-5,23-9.78-4.4-3.52-21.39,5-23Z"/>
              </g>
            </g>
          </g>
        </g>
      </g>
    </g>
  </g>
</svg>